<svg xmlns="http://www.w3.org/2000/svg" xmlns:xlink="http://www.w3.org/1999/xlink" version="1.1" x="0px" y="0px" viewBox="0 0 64 64" xml:space="preserve">

<path fill="#FFFFFF" d="M59,51V13h-3v2h1v28H7V15h1v-2H5v38h21.9189l-0.795,6H23v2h18v-2h-3.1239l-0.795-6H59z M7,45h50v4H7V45z M35.8589,57     h-7.7178l0.795-6h6.1277L35.8589,57z"/>
<path fill="#FFFFFF" d="M55,5H9v36h46V5z M53,39H11V7h42V39z"/>
<path fill="#FFFFFF" d="M36.5,10.751h-9v9h9V10.751z M34.5,17.751h-5v-5h5V17.751z"/>
<path fill="#FFFFFF" d="M48.959,10.751h-9v9h9V10.751z M46.959,17.751h-5v-5h5V17.751z"/>
<path fill="#FFFFFF" d="M24.041,10.751h-9v9h9V10.751z M22.041,17.751h-5v-5h5V17.751z"/>
<rect fill="#FFFFFF" x="15.6665" y="24.749" width="7.3745" height="2"/>
<rect fill="#FFFFFF" x="15.6665" y="28.999" width="3.8374" height="2"/>
<rect fill="#FFFFFF" x="15.6665" y="33.249" width="7.3745" height="2"/>
<rect fill="#FFFFFF" x="40.959" y="24.749" width="7.3745" height="2"/>
<rect fill="#FFFFFF" x="44.4961" y="28.999" width="3.8374" height="2"/>
<rect fill="#FFFFFF" x="40.959" y="33.249" width="7.3745" height="2"/>
<rect fill="#FFFFFF" x="28.313" y="28.999" width="7.374" height="2"/>
<rect fill="#FFFFFF" x="30.0815" y="24.749" width="3.8369" height="2"/>
<rect fill="#FFFFFF" x="28.313" y="33.249" width="7.374" height="2"/>

</svg>