<svg xmlns="http://www.w3.org/2000/svg" data-name="Layer 1" viewBox="0 0 48 48" x="0px" y="0px">

    <path fill="#FFFFFF" class="cls-1" d="M39,6H9c-2.757,0-5,2.243-5,5v26c0,2.757,2.243,5,5,5h30c2.757,0,5-2.243,5-5V11c0-2.757-2.243-5-5-5ZM9,8h30c1.654,0,3,1.346,3,3v3H6v-3c0-1.654,1.346-3,3-3ZM39,40H9c-1.654,0-3-1.346-3-3v-21h36v21c0,1.654-1.346,3-3,3Z"/>
    <circle fill="#FFFFFF" class="cls-1" cx="9.5" cy="11" r="1.5"/>
    <circle fill="#FFFFFF" class="cls-1" cx="13.5" cy="11" r="1.5"/>
    <circle fill="#FFFFFF" class="cls-1" cx="17.5" cy="11" r="1.5"/>
    <path fill="#FFFFFF" class="cls-1" d="M32.018,25.752c0-1.479-.979-2.721-2.319-3.148v-2.615c0-.826-.421-1.577-1.127-2.009-.706-.432-1.569-.465-2.307-.088-.485.248-.928.481-1.344.701-2.452,1.293-3.806,2.006-7.172,2.191h-3.917c-1.654,0-3,1.346-3,3v3.937c0,1.654,1.346,3,3,3h.563l2.065,6.135c.144.429.447.775.854.974.233.114.483.171.735.171.188,0,.376-.032.559-.096l1.475-.519c.859-.302,1.325-1.25,1.037-2.114l-1.443-4.331c1.977.335,3.21.964,5.084,1.933.468.242.97.501,1.527.778.334.166.694.249,1.052.249.431,0,.86-.12,1.243-.356.699-.433,1.116-1.181,1.116-2.001v-2.643c1.34-.427,2.319-1.669,2.319-3.148ZM12.833,27.721v-3.937c0-.551.449-1,1-1h2.953v5.937h-2.953c-.551,0-1-.449-1-1ZM18.252,35.91l-1.747-5.189h.99l1.626,4.883-.87.306ZM27.699,31.543c0,.171-.106.262-.169.301-.064.04-.194.095-.351.017-.547-.272-1.04-.527-1.499-.764-2.267-1.172-3.833-1.981-6.894-2.296v-6.086c3.167-.294,4.76-1.134,7.069-2.352.409-.215.845-.445,1.321-.689.155-.078.288-.024.352.014.064.039.171.13.171.303v11.553ZM30.018,25.752c0,.32-.129.603-.319.831v-1.663c.19.229.319.512.319.831Z"/>
    <path fill="#FFFFFF" class="cls-1" d="M32.297,30.229c-.46-.308-1.081-.182-1.387.277s-.182,1.081.277,1.387l2.212,1.475c.17.114.363.168.554.168.323,0,.64-.156.833-.445.306-.459.182-1.081-.277-1.387l-2.212-1.475Z"/>
    <path fill="#FFFFFF" class="cls-1" d="M36.167,24.899h-2.212c-.552,0-1,.448-1,1s.448,1,1,1h2.212c.552,0,1-.448,1-1s-.448-1-1-1Z"/>
    <path fill="#FFFFFF" class="cls-1" d="M31.744,21.737c.19,0,.383-.054.554-.168l2.212-1.475c.459-.306.583-.927.277-1.387-.307-.459-.927-.585-1.387-.277l-2.212,1.475c-.459.306-.583.927-.277,1.387.193.289.51.445.833.445Z"/>
    
</svg>