<?xml version="1.0" encoding="UTF-8"?>
<!DOCTYPE svg PUBLIC "-//W3C//DTD SVG 1.1//EN" "http://www.w3.org/Graphics/SVG/1.1/DTD/svg11.dtd">
<!-- Creator: CorelDRAW -->
<svg xmlns="http://www.w3.org/2000/svg" xml:space="preserve" width="1301px" height="669px" version="1.1" style="shape-rendering:geometricPrecision; text-rendering:geometricPrecision; image-rendering:optimizeQuality; fill-rule:evenodd; clip-rule:evenodd"
viewBox="0 0 33.59 17.28"
 xmlns:xlink="http://www.w3.org/1999/xlink"
 xmlns:xodm="http://www.corel.com/coreldraw/odm/2003">
 <defs>
  <style type="text/css">
   <![CDATA[
    .fil4 {fill:#2CAB4E}
    .fil0 {fill:#3E83F8}
    .fil1 {fill:#EE412A}
    .fil2 {fill:#FCBE00}
    .fil3 {fill:#FFDE45}
    .fil5 {fill:white}
   ]]>
  </style>
 </defs>
 <g id="Layer_x0020_1">
  <metadata id="CorelCorpID_0Corel-Layer"/>
  <path class="fil0" d="M0.87 2.81c-1.18,3.47 2.63,6.54 5.78,5.02 0.64,-0.31 1.25,-0.91 1.55,-1.48 0.48,-0.89 0.46,-1.55 0.44,-2.63l-3.79 0.02 0 1.08 2.67 0.01c-0.33,3.14 -4.75,2.85 -5.52,0.16 -0.8,-2.79 2.22,-4.93 4.47,-3.4l0.41 0.24 0.73 -0.73c-2.27,-1.99 -5.75,-1.19 -6.74,1.71z"/>
  <path class="fil0" d="M22.77 4.03c2.07,-0.69 2.56,2.57 0.91,3.08 -0.51,0.16 -0.95,0.01 -1.24,-0.2 -0.29,-0.22 -0.52,-0.53 -0.61,-0.89 -0.23,-0.9 0.25,-1.76 0.94,-1.99zm1.84 3.59c-0.06,1.84 -1.02,2.28 -2.07,1.78 -0.42,-0.2 -0.38,-0.32 -0.71,-0.71l-0.97 0.33c0.59,1.71 3.36,2.21 4.4,0.52 0.73,-1.18 0.38,-4.78 0.43,-6.42 -1.43,-0.05 -1.03,-0.08 -1.13,0.37 -2.18,-1.55 -3.87,0.43 -3.92,1.99 -0.07,2.12 2.22,3.53 3.97,2.14z"/>
  <path class="fil1" d="M11.21 4.06c0.92,-0.36 1.7,0.27 1.92,0.97 0.29,0.93 -0.25,1.79 -0.89,2.04 -1.92,0.74 -2.89,-2.28 -1.03,-3.01zm0.17 -1.12c-3.41,0.39 -2.95,5.66 0.66,5.25 3.42,-0.4 2.91,-5.67 -0.66,-5.25z"/>
  <path class="fil1" d="M29.28 5.45c0.06,-1.39 1.72,-2.18 2.35,-0.93l-2.35 0.93zm3.64 1.64l-0.77 -0.63c-0.4,0.24 -0.55,0.7 -1.39,0.7 -0.67,0.01 -1.06,-0.36 -1.27,-0.81 0.68,-0.31 3.15,-1.15 3.48,-1.52 -0.84,-2.75 -4.36,-2.44 -4.77,0.24 -0.47,3.12 3.29,4.14 4.72,2.02z"/>
  <path class="fil2" d="M16.98 4.04c1.96,-0.71 2.82,2.29 1.07,3.03 -2,0.84 -2.91,-2.37 -1.07,-3.03zm0.07 -1.05c-3.47,0.59 -2.58,5.83 0.99,5.15 1.3,-0.25 2.35,-1.57 2.03,-3.16 -0.26,-1.28 -1.47,-2.26 -3.02,-1.99z"/>
  <path class="fil3" d="M29.55 13.4l-2.36 0.01c0.02,0.03 0.05,0.03 0.06,0.07l1.84 1.46 -0.72 2.3c0.77,-0.45 1.32,-0.97 2.01,-1.39 0.65,0.4 1.38,1.06 2.01,1.37l-0.74 -2.4c0.4,-0.15 1,-0.65 1.46,-0.97l0.48 -0.46 -2.36 0 -0.82 -2.32c-0.39,0.47 -0.62,1.76 -0.86,2.33z"/>
  <path class="fil3" d="M9.23 13.42l-2.4 0.02c0.32,0.45 1.44,1.04 1.91,1.5l-0.73 2.32c0.72,-0.39 1.35,-0.9 1.99,-1.37 0.54,0.2 1.32,1.01 2.03,1.32l-0.72 -2.29 1.98 -1.52 -2.43 0.01 -0.81 -2.31 -0.82 2.32z"/>
  <path class="fil3" d="M0 13.48l0 0.02c0.4,0.26 0.56,0.38 0.97,0.68 0.37,0.27 0.67,0.45 0.99,0.76l-0.73 2.32c0.78,-0.45 1.27,-0.9 2,-1.38 0.66,0.31 1.43,1.14 2.01,1.32l-0.7 -2.25c0.18,-0.2 0.69,-0.55 0.96,-0.75 0.16,-0.11 0.33,-0.23 0.5,-0.35l0.48 -0.43 -2.41 -0.01c-0.14,-0.33 -0.26,-0.74 -0.37,-1.09 -0.15,-0.44 -0.24,-0.89 -0.52,-1.19l-0.57 1.8c-0.23,0.69 -0.03,0.5 -2.61,0.55z"/>
  <path class="fil3" d="M16.02 13.43l-2.42 0 1.93 1.51 -0.73 2.34c0.77,-0.45 1.29,-0.96 1.98,-1.39 0.43,0.13 1.39,0.97 2.04,1.34l-0.72 -2.28c0.23,-0.24 0.63,-0.47 0.97,-0.73l1 -0.82 -2.42 0.01 -0.81 -2.33 -0.82 2.35z"/>
  <path class="fil3" d="M22.8 13.43l-2.28 0.12c0.01,0.01 0.04,0.04 0.06,0.06 0.01,0.01 0.04,0.04 0.06,0.06 0.47,0.42 1.4,0.92 1.67,1.27l-0.71 2.3c0.76,-0.34 1.35,-1.07 2.06,-1.35 0.35,0.25 0.61,0.44 0.95,0.68 0.31,0.23 0.62,0.5 1,0.66l-0.72 -2.29 1.91 -1.47c0.02,-0.01 0.05,-0.05 0.07,-0.07l-2.43 0.01 -0.81 -2.33 -0.83 2.35z"/>
  <polygon class="fil4" points="26.49,8.05 27.6,8.05 27.63,0.28 26.49,0.29 "/>
  <path class="fil5" d="M16.98 4.04c-1.84,0.66 -0.93,3.87 1.07,3.03 1.75,-0.74 0.89,-3.74 -1.07,-3.03z"/>
  <path class="fil5" d="M11.21 4.06c-1.86,0.73 -0.89,3.75 1.03,3.01 0.64,-0.25 1.18,-1.11 0.89,-2.04 -0.22,-0.7 -1,-1.33 -1.92,-0.97z"/>
  <path class="fil5" d="M22.77 4.03c-0.69,0.23 -1.17,1.09 -0.94,1.99 0.09,0.36 0.32,0.67 0.61,0.89 0.29,0.21 0.73,0.36 1.24,0.2 1.65,-0.51 1.16,-3.77 -0.91,-3.08z"/>
  <path class="fil5" d="M29.28 5.45l2.35 -0.93c-0.63,-1.25 -2.29,-0.46 -2.35,0.93z"/>
 </g>
</svg>
