<svg xmlns="http://www.w3.org/2000/svg" data-name="Layer 1" viewBox="0 0 100 125" x="0px" y="0px">
<path fill="#AA0000" class="cls-1" d="M78.462,88.644H21.538a1.991,1.991,0,0,0-1.981,1.982v1.981H80.443V90.626a1.991,1.991,0,0,0-1.981-1.982ZM43.75,78.146v8.1h12.5v-8.1Zm42.169-8.158H14.081V75a.76.76,0,0,0,.755.755H85.164A.76.76,0,0,0,85.919,75V69.988ZM59.685,48.971a1.2,1.2,0,0,1,0-2.4h8.454a1.2,1.2,0,1,1,0,2.4Zm-27.824,0a1.2,1.2,0,0,1,0-2.4h21.7a1.2,1.2,0,0,1,0,2.4Zm0,6.77a1.2,1.2,0,1,1,0-2.4H68.139a1.2,1.2,0,1,1,0,2.4Zm0,6.77a1.2,1.2,0,0,1,0-2.4H68.139a1.2,1.2,0,1,1,0,2.4Zm46.9-39.795V67.593h7.157V23.472a.761.761,0,0,0-.755-.756ZM21.238,67.593V22.716h-6.4a.761.761,0,0,0-.755.756V67.593Zm12.773-60.2v6.864A3.512,3.512,0,0,1,30.5,17.765l-6.865,0V67.593H76.367V8.509A1.122,1.122,0,0,0,75.25,7.393ZM25.32,15.382l6.295-6.3v5.171A1.132,1.132,0,0,1,30.5,15.379l-5.178,0Zm26.332,8.174A2.337,2.337,0,1,1,50,22.872a2.328,2.328,0,0,1,1.652.684ZM50,20.477a4.732,4.732,0,1,1-3.346,1.386A4.717,4.717,0,0,1,50,20.477Zm-6.9,16.4a7.878,7.878,0,0,1,2.527-2.786,7.844,7.844,0,0,1,8.752,0A7.878,7.878,0,0,1,56.9,36.875a11.4,11.4,0,0,1-13.806,0ZM58.059,19.747a11.4,11.4,0,0,1,.625,15.44,10.224,10.224,0,0,0-17.368,0,11.4,11.4,0,0,1,16.743-15.44ZM50,14.013a13.793,13.793,0,1,1-9.753,4.04A13.749,13.749,0,0,1,50,14.013Z"/>
</svg>