<svg xmlns="http://www.w3.org/2000/svg" version="1.1" viewBox="0 0 110.0 135.0">
 <path d="m37.18 25.309h21.703l14.188-14.184c2.6133-2.6133 8.1797 0.31641 9 4.6367 0.25391 1.3359-0.023437 2.5977-0.89453 3.4648l-6.0781 6.0781h12.898c2.2422 0 4.0703 1.8281 4.0703 4.0703v12.832l3.0078-3.0078c0.60156-0.60938 1.6328-0.17969 1.6328 0.66797v36.289c0 0.52734-0.42578 0.95312-0.95312 0.95312l-36.289 0.007813c-0.83984 0-1.2773-1.0234-0.67578-1.6289l3.0156-3.0156-23.52 0.003906c-0.37891 1.1328-0.84375 2.1992-1.418 3.2539-0.23047 0.42188-0.73438 0.60156-1.1719 0.43359v0.003907c-3.3711-1.2891-6.7148 2.0586-5.4297 5.4297 0.17969 0.47266-0.042969 1-0.49609 1.207-0.72656 0.35937-1.1367 0.60156-1.918 0.91016-0.64062 0.26172-1.2969 0.49609-1.9609 0.69141-0.47266 0.13672-0.96875-0.10547-1.1484-0.55469-0.33203-0.72656-0.86719-1.3438-1.5352-1.7773l-0.003906 0.003906c-2.1602-1.3945-5.082-0.53906-6.1289 1.8047-0.19531 0.44141-0.6875 0.65625-1.1367 0.52344-1.3828-0.40625-2.6758-0.94531-3.9375-1.6328-0.42188-0.23047-0.60156-0.73438-0.43359-1.1719h-0.003906c1.2891-3.3711-2.0586-6.7148-5.4297-5.4297-0.47266 0.17969-1-0.042969-1.207-0.49609-0.33203-0.61328-0.62891-1.2344-0.89062-1.8672-0.26953-0.64844-0.50781-1.3203-0.71094-2.0117-0.14062-0.47266 0.10547-0.96875 0.55469-1.1484 1.4492-0.62109 2.4453-2.1875 2.4453-3.8242 0-1.6641-0.96875-3.168-2.4766-3.8398-0.44141-0.19531-0.65625-0.6875-0.52344-1.1367 0.40234-1.375 0.94922-2.6836 1.6328-3.9375 0.23047-0.42188 0.73438-0.60156 1.1719-0.43359v-0.003906c3.3711 1.2891 6.7148-2.0586 5.4297-5.4297-0.17969-0.47266 0.042968-1 0.49609-1.207 0.60547-0.32813 1.2266-0.625 1.8672-0.89063 0.64844-0.26953 1.3203-0.50781 2.0117-0.71094 0.47266-0.13672 0.96875 0.10938 1.1484 0.55469 0.33203 0.72656 0.86719 1.3438 1.5352 1.7773v-0.003906c0.40234 0.26172 0.85547 0.45312 1.3398 0.56641l0.003907-31.98c0-3.8516 3.1367-6.9883 6.9883-6.9883h9.2695c0.52734 0 0.95312 0.42578 0.95312 0.95312zm-16.266 31.336c-5.5391 0-10.031 4.4922-10.031 10.031 0 5.5391 4.4922 10.031 10.031 10.031 5.5391 0 10.031-4.4922 10.031-10.031 0-5.5391-4.4883-10.031-10.031-10.031zm5.7461 4.2852c-3.1719-3.1719-8.3164-3.1719-11.488 0-3.1719 3.1719-3.1719 8.3164 0 11.488s8.3164 3.1719 11.488 0 3.1719-8.3164 0-11.488zm11.137 9.6406h25.914l26.449-26.449v-14.742c0-1.1914-0.97266-2.1641-2.1641-2.1641h-14.805l-19.387 19.387c-0.12891 0.12891-0.28516 0.21094-0.44531 0.25391l-2.3516 0.63672h23.301c1.2539 0 1.2539 1.9062 0 1.9062h-35.203c-1.2539 0-1.2539-1.9062 0-1.9062h4.0195l2.3242-8.5703c0.042969-0.16797 0.13281-0.3125 0.24609-0.42578l11.281-11.281h-30.016c-1.9961 0-3.8086-0.84375-5.0859-2.2031l-0.007812 27.113c1.2773-0.29297 2.3555-1.1758 2.8906-2.3711 0.19531-0.44141 0.68359-0.65625 1.1367-0.52344 1.375 0.40234 2.6836 0.94922 3.9375 1.6328 0.42188 0.23047 0.60156 0.73438 0.43359 1.1719h0.003906c-1.2891 3.3711 2.0586 6.7148 5.4297 5.4297 0.47266-0.17969 1 0.042968 1.207 0.49609 0.33203 0.61328 0.62891 1.2344 0.89062 1.8672 0.26953 0.65234 0.50781 1.3203 0.71094 2.0117 0.13672 0.47266-0.10547 0.96875-0.55469 1.1484-0.72656 0.33203-1.3438 0.86719-1.7773 1.5352l0.003907 0.003906c-1.3633 2.0938-0.60156 4.918 1.6172 6.043zm-32 2.5c0.15234 0.36328 0.3125 0.71875 0.48047 1.0664 4.375-0.98828 8.3047 2.9414 7.3164 7.3164l2.1523 0.89062c1.8008-2.8477 5.6016-3.7383 8.4844-1.875l-0.003907 0.003906c0.74609 0.48047 1.3828 1.125 1.8555 1.8711l2.1523-0.89453c-0.99219-4.375 2.9414-8.3047 7.3164-7.3164l0.89062-2.1523c-2.8672-1.8086-3.7266-5.6211-1.875-8.4844h0.003906c0.45703-0.72656 1.1523-1.3984 1.8711-1.8555l-0.89062-2.1523c-4.375 0.99219-8.3047-2.9414-7.3164-7.3164l-2.1523-0.89062c-1.8086 2.8672-5.6211 3.7266-8.4844 1.875l0.003906-0.003906c-0.72656-0.45703-1.3984-1.1523-1.8555-1.8711-0.36719 0.125-0.73047 0.26172-1.0898 0.41016l-1.0664 0.48047c0.99219 4.375-2.9414 8.3047-7.3164 7.3164l-0.89063 2.1523c3.7773 2.3867 3.8164 7.9336 0 10.34 0.12891 0.37109 0.26563 0.73438 0.41406 1.0898zm44.277-36.254 5.4102 5.4102 18.793-18.793-5.4102-5.4102zm4.0625 6.7578-5.4102-5.4102-1.5039 1.5039-2.0156 7.4258 7.4258-2.0156zm16.078-26.898 5.4102 5.4062 4.1992-4.1992c1.3789-1.3789-0.69922-5.2227-3.6406-5.7812-0.72266-0.13672-1.3711-0.023437-1.7695 0.37109zm-48.336 3.4688c0 2.9062 2.2734 5.1641 5.082 5.1641h8.3164l-0.003906-10.246h-8.3164c-2.7969 0-5.0781 2.2852-5.0781 5.082zm72.922 27.883h-0.80078c-1.2539 0-1.2539-1.9062 0-1.9062h0.80078v-3.9453l-33.035 33.035h33.035v-5.293h-0.80078c-1.2539 0-1.2539-1.9062 0-1.9062h0.80078v-1.7422h-1.7227c-1.2539 0-1.2539-1.9062 0-1.9062h1.7227v-1.7422h-0.80078c-1.2539 0-1.2539-1.9062 0-1.9062h0.80078v-1.7422h-1.7227c-1.2539 0-1.2539-1.9062 0-1.9062h1.7227v-1.7422h-0.80078c-1.2539 0-1.2539-1.9062 0-1.9062h0.80078v-1.7422h-1.7227c-1.2539 0-1.2539-1.9062 0-1.9062h1.7227zm-6.5195 8.9609-11.699 11.703h11.699zm-14.676 11.98c-0.60156 0.60156-0.16797 1.6289 0.67578 1.6289h14.957c0.52734 0 0.95312-0.42578 0.95312-0.95312l-0.003906-14.957c0-0.84766-1.0312-1.2773-1.6328-0.66797zm16.188 18.988v-3.6875c0-1.2539 1.9062-1.2539 1.9062 0v3.6836h3.1016v-6.1992l-53.676 0.003906v6.1992h3.0977v-2.1992c0-1.2539 1.9062-1.2539 1.9062 0v2.1992h4.6016l0.003906-3.6875c0-1.2539 1.9062-1.2539 1.9062 0v3.6836h4.6016v-2.1992c0-1.2539 1.9062-1.2539 1.9062 0v2.1992h4.6016l0.003906-3.6836c0-1.2539 1.9062-1.2539 1.9062 0v3.6836h4.6016v-2.1992c0-1.2539 1.9062-1.2539 1.9062 0v2.1992h4.6016v-3.6836c0-1.2539 1.9062-1.2539 1.9062 0v3.6836h4.6016v-2.1992c0-1.2539 1.9062-1.2539 1.9062 0v2.1992zm-49.621-8.1055c-0.52734 0-0.95312 0.42578-0.95312 0.95313v8.1055c0 0.52734 0.42578 0.95312 0.95312 0.95312h55.582c0.52734 0 0.95312-0.42578 0.95312-0.95312v-8.1055c0-0.52734-0.42578-0.95313-0.95312-0.95313z" fill="#AA0000"/>
</svg>