<svg xmlns="http://www.w3.org/2000/svg" version="1.1" viewBox="0 0 110.0 135.0">
 <g>
  <path fill="#AA0000" d="m71.562 56.562c0 3.6094-5.418 3.6094-5.418 0s5.418-3.6094 5.418 0"/>
  <path fill="#AA0000" d="m84.062 56.562c0 3.6094-5.418 3.6094-5.418 0s5.418-3.6094 5.418 0"/>
  <path fill="#AA0000" d="m87.5 22.707h-57.188l4.375 4.0625c0.3125 0.3125 0.51953 0.625 0.625 1.043h1.1445c1.1445 0 2.1875 0.20703 3.332 0.625 3.332 1.25 5.625 4.168 6.1445 7.6055 0.625 4.6875 2.082 7.082 3.125 7.3945 1.25 0.41797 2.1875 1.5625 2.1875 2.918s-0.83203 2.6055-2.082 3.0195c0 0-3.125 1.1445-6.9805 1.1445-5.625 0-10.207-2.1875-13.23-6.457-1.5625-2.1875-2.1875-4.793-1.9805-7.293-0.41797 0-0.83203-0.3125-1.1445-0.625l-10.938-12.605c-1.5625 0.9375-2.6055 2.6055-2.6055 4.4805v38.438h80.312l0.007813-38.539c0-2.918-2.3945-5.207-5.207-5.207zm-60.105 38.543c-4.582 0-8.4375-3.75-8.4375-8.4375s3.75-8.4375 8.4375-8.4375 1.043 0.41797 1.043 1.043-0.41797 1.043-1.043 1.043c-3.4375 0-6.3555 2.8125-6.3555 6.3555 0 3.543 2.8125 6.3555 6.3555 6.3555s6.3555-2.8125 6.3555-6.3555c0-3.543 0.41797-1.043 1.043-1.043s1.043 0.41797 1.043 1.043c0 4.582-3.75 8.4375-8.4375 8.4375zm41.043-26.668c0-2.293 1.875-4.168 4.168-4.168h8.125c2.293 0 4.168 1.875 4.168 4.168v7.082c0 2.293-1.875 4.168-4.168 4.168h-8.125c-2.293 0-4.168-1.875-4.168-4.168zm-20.312 1.7734c-0.625 0-1.043-0.41797-1.043-1.043s0.41797-1.043 1.043-1.043h8.75c0.625 0 1.043 0.41797 1.043 1.043s-0.41797 1.043-1.043 1.043zm-2.6055 15.414h9.168c0.625 0 1.043 0.41797 1.043 1.043s-0.41797 1.043-1.043 1.043h-9.168c-0.625 0-1.043-0.41797-1.043-1.043s0.41797-1.043 1.043-1.043zm12.812 7.293h-12.918c-0.625 0-1.043-0.41797-1.043-1.043s0.41797-1.043 1.043-1.043h12.918c0.625 0 1.043 0.41797 1.043 1.043s-0.41797 1.043-1.043 1.043zm0.21094-18.75c0-0.625 0.41797-1.043 1.043-1.043h5.625c0.625 0 1.043 0.41797 1.043 1.043s-0.41797 1.043-1.043 1.043h-5.625c-0.625 0-1.043-0.41797-1.043-1.043zm10.312 20.938c-2.6055 0-4.793-2.082-4.793-4.793 0-2.707 2.082-4.793 4.793-4.793 2.707 0 4.793 2.082 4.793 4.793 0 2.707-2.082 4.793-4.793 4.793zm12.5 0c-2.6055 0-4.793-2.082-4.793-4.793 0-2.707 2.082-4.793 4.793-4.793 2.707 0 4.793 2.082 4.793 4.793 0 2.707-2.082 4.793-4.793 4.793z"/>
  <path fill="#AA0000" d="m30.73 42.707c3.125 4.4805 7.707 5.5195 11.457 5.5195s6.25-0.9375 6.25-0.9375c0.41797-0.10547 0.73047-0.51953 0.73047-1.043 0-0.51953-0.3125-0.83203-0.73047-0.9375-3.0195-0.9375-4.168-6.043-4.582-9.0625-0.41797-2.707-2.1875-5-4.793-5.9375-2.5-0.9375-5.207-0.41797-7.1875 1.25-0.20703 0.10547-0.3125 0.3125-0.41797 0.41797-2.8125 2.8125-3.125 7.3945-0.625 10.73z"/>
  <path fill="#AA0000" d="m29.895 30.52 0.51953-0.51953c0.83203-0.73047 1.7695-1.25 2.8125-1.668l-21.352-19.895c-1.043-0.9375-2.707-0.9375-3.75 0-1.043 1.043-1.1445 2.6055-0.10547 3.75l19.48 22.395c0.41797-1.5625 1.25-2.918 2.3945-4.168z"/>
  <path fill="#AA0000" d="m72.605 32.5h8.125c1.1523 0 2.082 1.1523 2.082 2.082v7.082c0 1.1523-0.93359 2.082-2.082 2.082h-8.125c-1.1523 0-2.082-1.1523-2.082-2.082v-7.082c0-1.1523 0.93359-2.082 2.082-2.082z"/>
  <path fill="#AA0000" d="m12.395 71.875c0 2.918 2.3945 5.207 5.207 5.207h69.793c2.918 0 5.207-2.3945 5.207-5.207v-3.4375h-80.207zm38.23-1.668h3.75c0.625 0 1.043 0.41797 1.043 1.043s-0.41797 1.043-1.043 1.043h-3.75c-0.625 0-1.043-0.41797-1.043-1.043s0.41797-1.043 1.043-1.043z"/>
  <path fill="#AA0000" d="m59.895 82.188c-0.20703-1.043-0.20703-1.9805 0-3.0195h-14.688c0.20703 1.043 0.20703 1.9805 0 3.0195z"/>
  <path fill="#AA0000" d="m63.543 84.27h-21.98c-2.1875 0-3.957 1.7695-3.957 3.957s1.7695 3.957 3.957 3.957h21.98c2.1875 0 3.957-1.7695 3.957-3.957s-1.7695-3.957-3.957-3.957z"/>
 </g></svg>