<svg xmlns="http://www.w3.org/2000/svg" version="1.1" viewBox="0 0 110.0 135.0">
 <path d="m91.629 92.227h-19.965v-4.4414h19.965zm-14.395-9.0078c-0.011719-0.14062-0.046875-0.27734-0.09375-0.41016-2.1641-5.3789-2.6133-11.609-1.3711-19.055 0.09375-0.53906-0.14844-1.082-0.60938-1.375l-8.5039-5.3945c-1.5508-0.98047-1.1602-3.3711 0.65625-3.7812 0.53906-0.12109 1.1055-0.023437 1.5664 0.26953l10.242 6.5c0.90234 0.57031 2.0938-0.066406 2.0938-1.1484v-20.684c4.1523 5.2852 5.293 15.051 6.3047 23.801 0.49609 4.3086 0.96484 8.375 1.7617 11.848 0.16016 0.79297 0.32031 7.0586-0.023438 11.273h-11.898zm-50.383-4.125h46.312c-0.98828-4.4492-1.0586-9.3633-0.21875-14.891l-7.7422-4.918c-2.2422-1.418-2.8984-4.3906-1.4844-6.625 1.418-2.2344 4.3906-2.9023 6.6289-1.4844l8.1445 5.1719-0.003907-36.953h-6.1562c-3.0039 0-5.4531-2.4492-5.4531-5.4609v-6.1602h-42.629c-1.5195 0-2.7383 1.2305-2.7383 2.7383v45.836l8.1445-5.1719c2.2344-1.418 5.2148-0.75 6.6289 1.4844 1.4258 2.2344 0.75781 5.207-1.4727 6.625l-7.7539 4.918c0.83984 5.5273 0.76953 10.441-0.20703 14.891zm-16.098 5.9688c-0.35547-4.2148-0.19531-10.48-0.023437-11.27 0.78125-3.4727 1.2539-7.5391 1.7617-11.848 1.0117-8.7539 2.1406-18.516 6.293-23.801v20.688c0 1.0586 1.1719 1.7305 2.0938 1.1484l10.242-6.5c0.96484-0.60938 2.2539-0.32812 2.8633 0.64062 0.62109 0.96875 0.33203 2.2539-0.63281 2.8711l-8.5039 5.3945c-0.47266 0.29297-0.71484 0.83594-0.62109 1.375 1.2422 7.4453 0.80469 13.676-1.3594 19.055-0.058594 0.12891-0.09375 0.26953-0.09375 0.41016l-0.13672 1.8438zm17.582 7.1641h-19.965v-4.4414h19.965zm41.27-82.52 6.9609 6.9609h-4.2344c-1.5078 0-2.7266-1.2266-2.7266-2.7344zm22.379 75.375c0.33203-4.3438 0.20703-10.75-0.058594-11.895-2.6523-11.633-1.6641-31.527-10.711-38.93v-16.227c0-0.35938-0.13672-0.70703-0.39062-0.96484l-11.621-11.617c-0.25391-0.25391-0.59766-0.40234-0.96484-0.40234h-43.988c-3.0156 0-5.4648 2.4492-5.4648 5.4648v23.746c-9.0469 7.4141-8.0508 27.344-10.711 38.93-0.26562 1.1445-0.39062 7.5508-0.058594 11.895-1.3242 0.16016-2.3711 1.293-2.3711 2.668v4.5156c0 1.4805 1.207 2.6875 2.6914 2.6875h20.043c1.4727 0 2.6797-1.2031 2.6797-2.6875v-4.5156c0-1.4805-1.207-2.6875-2.6797-2.6875h-3.0156l0.10547-1.4375c0.24219-0.59375 0.44922-1.1992 0.64453-1.8086h47.773c0.19531 0.60938 0.41406 1.2148 0.64453 1.8086l0.10156 1.4375h-3.0039c-1.4844 0-2.6914 1.207-2.6914 2.6875v4.5156c0 1.4805 1.207 2.6875 2.6914 2.6875h20.031c1.4844 0 2.6914-1.2031 2.6914-2.6875v-4.5156c0.003907-1.375-1.0312-2.5078-2.3672-2.668zm-37.176-51.957c-0.49609-0.55859-0.44922-1.4219 0.11328-1.9219 0.55078-0.50391 1.4141-0.45703 1.9219 0.10547l1.3594 1.5156 4.6484-4.1484c0.5625-0.5 1.4258-0.45312 1.9219 0.10938 0.50781 0.5625 0.44922 1.4219-0.10547 1.9219l-5.6719 5.0508c-0.5625 0.50391-1.418 0.44531-1.9219-0.10547zm0 12.457 2.2656 2.5234c0.50391 0.55078 1.3594 0.61328 1.9219 0.10547l5.6719-5.0508c0.55078-0.5 0.60938-1.3594 0.10547-1.9219-0.49609-0.5625-1.3594-0.60938-1.9219-0.10938l-4.6484 4.1484-1.3594-1.5156c-0.50781-0.55859-1.3711-0.60547-1.9219-0.10547-0.5625 0.50391-0.60547 1.3672-0.11328 1.9258zm10.289 26.215c0 0.75391-0.60938 1.3594-1.3594 1.3594h-27.465c-0.75781 0-1.3711-0.60938-1.3711-1.3594 0-0.75391 0.60938-1.3633 1.3711-1.3633h27.465c0.74609 0 1.3594 0.60938 1.3594 1.3633zm-30.078-8.1719c0-0.75391 0.60938-1.3633 1.3711-1.3633h25.797c0.74609 0 1.3594 0.60938 1.3594 1.3633s-0.60938 1.3633-1.3594 1.3633h-25.801c-0.75781 0-1.3672-0.60938-1.3672-1.3633zm19.789-42.957c-0.49609-0.55859-0.44922-1.4219 0.11328-1.9219 0.55078-0.50391 1.4141-0.45703 1.9219 0.10547l1.3594 1.5156 4.6484-4.1484c0.5625-0.5 1.4258-0.44922 1.9219 0.10938 0.50781 0.5625 0.44922 1.4219-0.10547 1.9219l-5.6719 5.0508c-0.5625 0.50781-1.418 0.44531-1.9219-0.10547zm-5.6484 25.168h-17.398v-8.9141c0-4.7969 3.9023-8.6992 8.6992-8.6992 4.7969 0 8.6992 3.9023 8.6992 8.6992zm-13.082-24.727c0-2.418 1.9688-4.3867 4.3828-4.3867 2.4297 0 4.3945 1.9688 4.3945 4.3867s-1.9688 4.3867-4.3945 4.3867c-2.4141 0-4.3828-1.9648-4.3828-4.3867zm15.809 26.09c0 0.75391-0.60938 1.3633-1.3594 1.3633l-20.121-0.003906c-0.75781 0-1.3711-0.60938-1.3711-1.3633v-10.277c0-4.6445 2.7969-8.6484 6.7891-10.434-1.5195-1.3047-2.4727-3.2305-2.4727-5.375 0-3.9219 3.1875-7.1133 7.1094-7.1133 3.9219 0 7.1094 3.1914 7.1094 7.1133 0 2.1445-0.95312 4.0703-2.4609 5.375 3.9922 1.7852 6.7773 5.7891 6.7773 10.434z" fill="#AA0000"/></svg>