<svg xmlns="http://www.w3.org/2000/svg" xmlns:xlink="http://www.w3.org/1999/xlink" viewBox="0 -5 68 82" version="1.1" x="0px" y="0px">

<g stroke="none" stroke-width="1" fill="none" fill-rule="evenodd">
<g transform="translate(-296.000000, -425.000000)" fill="#AA0000" fill-rule="nonzero">
<path d="M307.441569,462 L306.823694,458.476224 L304.490648,459.01485 C303.004764,459.357894 301.697014,457.978496 302.118749,456.513004 L303.935774,450.199 L301.566284,449.65196 C300.080401,449.308917 299.50969,447.495843 300.531173,446.363543 L304.926258,441.491652 L303.007356,439.937756 C301.822232,438.978062 302.104081,437.098299 303.518551,436.528383 L309.579102,434.086478 L308.530574,431.936678 C307.862072,430.566045 308.911936,428.981515 310.434738,429.062777 L317,429.413123 L317,427 C317,425.475031 318.638223,424.511095 319.971286,425.251685 L325.710875,428.440346 L326.785103,426.237853 C327.453605,424.867221 329.348593,424.71899 330.222088,425.969004 L333.967148,431.328368 L335.811479,429.834858 C336.996602,428.875165 338.776689,429.541679 339.040066,431.043731 L340.176306,437.523776 L342.509352,436.98515 C343.995236,436.642106 345.302986,438.021504 344.881251,439.486996 L343.064226,445.801 L345.433716,446.34804 C346.919599,446.691083 347.49031,448.504157 346.468827,449.636457 L342.073742,454.508348 L343.992644,456.062244 C345.177768,457.021938 344.895919,458.901701 343.481449,459.471617 L337.420898,461.913522 L337.463076,462 L362,462 C363.104569,462 364,462.895431 364,464 L364,478 C364,479.104569 363.104569,480 362,480 L298,480 C296.895431,480 296,479.104569 296,478 L296,464 C296,462.895431 296.895431,462 298,462 L307.441569,462 Z M332.884633,461.737487 C332.37601,460.694657 332.858591,459.439278 333.934775,459.005664 L338.833821,457.03175 L337.917015,456.289335 C337.026061,455.567855 336.92271,454.246607 337.690642,453.395366 L341.221999,449.480905 L340.108917,449.223929 C338.991857,448.966036 338.31977,447.823813 338.636822,446.722083 L340.097244,441.647245 L339.020606,441.895807 C337.903546,442.1537 336.79876,441.421701 336.600758,440.292485 L335.687219,435.08252 L334.816062,435.787969 C333.914375,436.518142 332.582614,436.330328 331.918025,435.379268 L328.890243,431.046365 L328.381276,432.089902 C327.878708,433.120318 326.614574,433.518236 325.612402,432.961474 L321,430.399029 L321,431.522695 C321,432.669138 320.038239,433.580945 318.893425,433.519854 L313.615787,433.23822 L314.115367,434.262513 C314.62399,435.305343 314.141409,436.560722 313.065225,436.994336 L308.166179,438.96825 L309.082985,439.710665 C309.973939,440.432145 310.07729,441.753393 309.309358,442.604634 L305.778001,446.519095 L306.891083,446.776071 C308.008143,447.033964 308.68023,448.176187 308.363178,449.277917 L306.902756,454.352755 L307.979394,454.104193 C309.096454,453.8463 310.20124,454.578299 310.399242,455.707515 L311.312781,460.91748 L312.183938,460.212031 C313.085625,459.481858 314.417386,459.669672 315.081975,460.620732 L316.045791,462 L333.012669,462 L332.884633,461.737487 Z M300,466 L300,476 L360,476 L360,466 L300,466 Z M323.5,456 C319.357864,456 316,452.642136 316,448.5 C316,444.357864 319.357864,441 323.5,441 C327.642136,441 331,444.357864 331,448.5 C331,452.642136 327.642136,456 323.5,456 Z M323.5,452 C325.432997,452 327,450.432997 327,448.5 C327,446.567003 325.432997,445 323.5,445 C321.567003,445 320,446.567003 320,448.5 C320,450.432997 321.567003,452 323.5,452 Z M353.392232,458.961161 C352.309113,459.177785 351.255463,458.475352 351.038839,457.392232 C350.822215,456.309113 351.524648,455.255463 352.607768,455.038839 L357.607768,454.038839 C358.690887,453.822215 359.744537,454.524648 359.961161,455.607768 C360.177785,456.690887 359.475352,457.744537 358.392232,457.961161 L353.392232,458.961161 Z M351.2,453.6 C350.316344,454.262742 349.062742,454.083656 348.4,453.2 C347.737258,452.316344 347.916344,451.062742 348.8,450.4 L352.8,447.4 C353.683656,446.737258 354.937258,446.916344 355.6,447.8 C356.262742,448.683656 356.083656,449.937258 355.2,450.6 L351.2,453.6 Z"/>
</g></g>
</svg>