<svg xmlns="http://www.w3.org/2000/svg" version="1.1" viewBox="0 0 110.0 135.0">
 <g>
  <path fill="#AA0000" d="m58.312 35.422c-1.1445 0.003906-2.0742 0.92969-2.0781 2.0742v56.258h-45.844v-49.996c0.003906-0.55469-0.21484-1.0859-0.60547-1.4766-0.39062-0.39453-0.91797-0.61328-1.4727-0.61719-0.55469 0-1.0859 0.21875-1.4805 0.60938-0.39062 0.39453-0.61328 0.92578-0.60938 1.4844v52.074-0.003906c-0.003906 0.55469 0.21875 1.0898 0.60938 1.4805 0.39453 0.39453 0.92578 0.61328 1.4805 0.61328h50c0.55078-0.003906 1.082-0.22266 1.4688-0.61719 0.39062-0.39063 0.60938-0.92188 0.60547-1.4766v-58.332c-0.003907-1.1445-0.92969-2.0703-2.0742-2.0742z"/>
  <path fill="#AA0000" d="m91.637 68.746c-0.55078 0.003906-1.082 0.22266-1.4727 0.61719-0.38672 0.39062-0.60547 0.92188-0.60156 1.4766v22.914h-31.25c-1.1445 0.003906-2.0742 0.92969-2.0781 2.0742 0 0.55469 0.21484 1.0859 0.60547 1.4766 0.39062 0.39453 0.91797 0.61328 1.4727 0.61719h33.34c0.55469-0.003906 1.082-0.22266 1.4727-0.61719 0.38672-0.39063 0.60547-0.92188 0.60547-1.4766v-24.992 0.003906c0-0.55859-0.21875-1.0898-0.61328-1.4844-0.39063-0.39062-0.92578-0.60938-1.4805-0.60938z"/>
  <path fill="#AA0000" d="m33.305 68.746c-0.55078 0.003906-1.082 0.22266-1.4727 0.61719-0.38672 0.39062-0.60547 0.92188-0.60156 1.4766v24.992-0.003906c-0.003907 0.55469 0.21484 1.0859 0.60156 1.4766 0.39062 0.39453 0.92188 0.61328 1.4727 0.61719h16.672c0.55469 0 1.0898-0.21875 1.4805-0.61328 0.39453-0.39062 0.61328-0.92578 0.60938-1.4805v-24.992 0.003906c0.003906-0.55859-0.21484-1.0898-0.60938-1.4844-0.39453-0.39062-0.92578-0.60938-1.4805-0.60938zm2.0898 4.168h12.504v20.84h-12.504z"/>
  <path fill="#AA0000" d="m66.648 68.746c-0.55859 0-1.0898 0.21875-1.4844 0.60938-0.39062 0.39453-0.60937 0.92578-0.60937 1.4844v24.992-0.003906c0 0.55469 0.21875 1.0898 0.60937 1.4805 0.39453 0.39453 0.92578 0.61328 1.4844 0.61328h16.672-0.003906c0.55469-0.003906 1.082-0.22266 1.4727-0.61719 0.39063-0.39063 0.60547-0.92188 0.60547-1.4766v-24.992 0.003906c0-0.55469-0.21484-1.0859-0.60547-1.4766-0.39062-0.39453-0.91797-0.61328-1.4727-0.61719zm2.0742 4.168h12.504v20.84h-12.504z"/>
  <path fill="#AA0000" d="m49.836 38.543c-5.6953 1.6406-11.453 3.5234-17.148 5.3047-0.86719 0.27344-1.4609 1.0742-1.4609 1.9844v14.578c-0.003906 1.1523 0.92578 2.0859 2.0742 2.0898h16.672c1.1562 0.003906 2.0977-0.93359 2.0898-2.0898v-7.4141c0.003906-1.1562-0.93359-2.0977-2.0898-2.0898-1.1523 0.003906-2.082 0.94141-2.0742 2.0898v5.3359h-12.504v-10.965l12.504-3.9062v2.1055c-0.003907 1.1523 0.92578 2.0859 2.0742 2.0898 1.1562 0.003906 2.0977-0.93359 2.0898-2.0898v-4.9531c0-1.207-1.0273-2.1602-2.2305-2.0742z"/>
  <path fill="#AA0000" d="m28.523 70.84c0-0.55469-0.21484-1.0859-0.60547-1.4766-0.39062-0.39453-0.91797-0.61328-1.4727-0.61719h-11.258c-0.55469 0-1.0859 0.21875-1.4805 0.60938-0.39062 0.39453-0.61328 0.92578-0.60938 1.4844v18.484c0 0.55078 0.22266 1.082 0.61328 1.4727 0.39453 0.38672 0.92578 0.60547 1.4766 0.60156h11.258c1.1445-0.003907 2.0742-0.92969 2.0781-2.0742zm-4.168 2.0781v14.316h-7.0898v-14.316z"/>
  <path fill="#AA0000" d="m66.648 77.082c-0.55859-0.003906-1.0898 0.21875-1.4844 0.60938-0.39062 0.39453-0.60937 0.92578-0.60937 1.4844 0.003906 0.55078 0.22266 1.082 0.61719 1.4688 0.39062 0.39062 0.92188 0.60938 1.4766 0.60547h16.672-0.003906c1.1445-0.003906 2.0742-0.92969 2.0781-2.0742 0-0.55469-0.21484-1.0859-0.60547-1.4766-0.39062-0.39453-0.91797-0.61328-1.4727-0.61719z"/>
  <path fill="#AA0000" d="m41.645 83.332c0 1.1523-0.93359 2.0859-2.082 2.0859-0.55469 0-1.082-0.22266-1.4727-0.61328-0.39062-0.39063-0.61328-0.91797-0.61328-1.4727 0-0.55078 0.22266-1.082 0.61328-1.4727s0.91797-0.60938 1.4727-0.60938c0.55078 0 1.082 0.21875 1.4727 0.60938s0.60938 0.92188 0.60938 1.4727z"/>
  <path fill="#AA0000" d="m62.141 20.148c-20.184 4.2617-40.93 8.4727-58.363 12.164-1.1172 0.24219-1.832 1.3398-1.5977 2.4609l1.6914 8.168c0.23438 1.1328 1.3438 1.8555 2.4766 1.6133 20.031-4.2461 40.891-8.4805 58.148-12.133 1.1172-0.24219 1.832-1.3398 1.5977-2.4609l-1.6914-8.168c-0.21875-1.0469-1.1953-1.7578-2.2617-1.6445zm-1.3828 4.5352 0.84766 4.0742c-16.254 3.4297-35.383 7.332-54.086 11.289l-0.84766-4.0742c17.418-3.6836 35.266-7.3203 54.086-11.289z"/>
  <path fill="#AA0000" d="m60.48 45.832c-1.0195-0.054687-1.9336 0.63281-2.1523 1.6289-0.25391 1.1211 0.44922 2.2344 1.5703 2.4922 11.09 2.5 22.18 5.2656 33.371 7.6875l-0.84766 4.0742c-11.113-2.4297-22.191-5.0703-33.312-7.6602-1.1211-0.26563-2.2461 0.42969-2.5078 1.5547-0.25391 1.1172 0.4375 2.2305 1.5547 2.4922 11.777 2.7422 23.562 5.6055 35.434 8.168 1.1289 0.24219 2.2422-0.48438 2.4766-1.6133l1.6914-8.168c0.23438-1.1211-0.48047-2.2188-1.5977-2.4609-12.504-2.668-24.996-5.8125-35.68-8.1953z"/>
  <path fill="#AA0000" d="m85.363 2.0781c-6.8789 0-12.504 5.625-12.504 12.504 0 6.8789 5.625 12.504 12.504 12.504 6.8789 0 12.504-5.625 12.504-12.504 0-6.8789-5.625-12.504-12.504-12.504zm0 4.168c4.6289 0 8.3359 3.707 8.3359 8.3359 0 4.6289-3.707 8.3359-8.3359 8.3359-4.6289 0-8.3359-3.707-8.3359-8.3359 0-4.6289 3.707-8.3359 8.3359-8.3359z"/>
 </g>
</svg>