<?xml version="1.0" encoding="UTF-8"?>
<!DOCTYPE svg PUBLIC "-//W3C//DTD SVG 1.1//EN" "http://www.w3.org/Graphics/SVG/1.1/DTD/svg11.dtd">
<!-- Creator: CorelDRAW -->
<svg xmlns="http://www.w3.org/2000/svg" xml:space="preserve" width="1984px" height="490px" version="1.1" style="shape-rendering:geometricPrecision; text-rendering:geometricPrecision; image-rendering:optimizeQuality; fill-rule:evenodd; clip-rule:evenodd"
viewBox="0 0 721.2 178.17"
 xmlns:xlink="http://www.w3.org/1999/xlink"
 xmlns:xodm="http://www.corel.com/coreldraw/odm/2003">
 <defs>
  <style type="text/css">
   <![CDATA[
    .fil0 {fill:#0E67AE}
   ]]>
  </style>
 </defs>
 <g id="Layer_x0020_1">
  <metadata id="CorelCorpID_0Corel-Layer"/>
  <path class="fil0" d="M340.15 167.39c5.4,2.82 7.85,5.31 15.73,7.37 17.02,4.44 32.65,1.38 46.66,-8.75 2.11,-1.53 4.26,-4.03 6.06,-5.83 7.95,-7.95 15.64,-15.63 23.59,-23.59 8.97,-8.99 14.19,-17.57 16.12,-31.41 2.67,-19.12 -6.17,-39.29 -20.83,-49.22 -17.2,-11.64 -36.53,-13.39 -55.01,-4.3 -9.77,4.81 -18.06,14.41 -25.62,21.93 -4,3.98 -7.73,7.7 -11.73,11.68 -3.06,3.05 -9.26,7.72 -6.7,15.74 1.61,5.07 7.74,9.87 14.77,7.1 2.96,-1.16 4.88,-3.33 6.7,-5.2l23.68 -23.5c2.05,-2.04 3.44,-3.91 6.25,-5.63 5.24,-3.2 10.88,-5.61 18.54,-5.18 7.48,0.42 16.35,4.6 20.03,9.43 0.68,0.88 0.6,0.67 1.38,1.49 5.94,6.24 8.41,20.49 4.09,30.01 -3.16,6.97 -6.22,9.06 -10.46,13.31 -6.65,6.65 -24.24,23.65 -29.46,29.6 -4.61,5.24 -14.88,10.95 -22.58,13.06 -11.64,3.19 -11.53,1.55 -21.21,1.89zm185.06 10.78c-11.71,0 -22.42,-2.67 -32.12,-8.03 -9.7,-5.35 -17.36,-12.88 -22.96,-22.58 -5.61,-9.71 -8.41,-20.91 -8.41,-33.63 0,-12.71 2.84,-23.96 8.53,-33.75 5.69,-9.79 13.43,-17.36 23.22,-22.71 9.78,-5.36 20.62,-8.03 32.49,-8.03 11.88,0 22.63,2.63 32.25,7.9 9.62,5.27 17.23,12.76 22.84,22.46 5.6,9.7 8.4,20.91 8.4,33.63 0,12.88 -2.84,24.22 -8.53,34 -5.69,9.79 -13.38,17.36 -23.09,22.71 -9.7,5.36 -20.57,8.03 -32.62,8.03zm0.25 -13.3c9.2,0 17.57,-2.13 25.1,-6.4 7.53,-4.26 13.51,-10.28 17.94,-18.06 4.43,-7.78 6.65,-16.61 6.65,-26.48 0,-10.04 -2.22,-18.95 -6.65,-26.73 -4.43,-7.77 -10.41,-13.8 -17.94,-18.06 -7.53,-4.27 -15.81,-6.4 -24.85,-6.4 -9.2,0 -17.56,2.13 -25.09,6.4 -7.53,4.26 -13.51,10.24 -17.94,17.94 -4.44,7.69 -6.66,16.48 -6.66,26.35 0,10.04 2.22,18.95 6.66,26.73 4.43,7.77 10.41,13.84 17.94,18.19 7.53,4.35 15.81,6.52 24.84,6.52zm195.74 10.79l-19.82 0 -41.41 -37.64c-8.87,-8.2 -16.31,-15.56 -22.33,-22.08l-0.76 0.25c0.51,6.86 0.76,19.74 0.76,38.65l0 20.82 -14.31 0 0 -175.66 14.31 0 0 65.75c0,21.25 -0.17,35.3 -0.51,42.16l0.51 0.25c4.51,-5.02 11.37,-11.96 20.57,-20.83l36.64 -35.63 18.57 0 -62.23 60.47 70.01 63.49zm-656.46 2.26c-12.54,0 -23.5,-2.97 -32.87,-8.91 -9.37,-5.93 -15.39,-13.25 -18.07,-21.95l-0.5 0c0.33,7.02 0.5,16.56 0.5,28.6l-13.8 0 0 -175.66 14.3 0 0 46.17c0,12.55 -0.33,23.76 -1,33.63l0.5 0c3.18,-8.53 9.45,-15.72 18.82,-21.58 9.37,-5.86 20.16,-8.78 32.38,-8.78 11.71,0 22.25,2.72 31.62,8.15 9.36,5.44 16.73,13.01 22.08,22.71 5.35,9.71 8.03,20.75 8.03,33.13 0,12.55 -2.68,23.71 -8.03,33.5 -5.35,9.79 -12.72,17.4 -22.08,22.84 -9.37,5.43 -20,8.15 -31.88,8.15zm-1.75 -13.3c9.53,0 18.07,-2.13 25.59,-6.4 7.53,-4.26 13.39,-10.24 17.57,-17.94 4.18,-7.7 6.27,-16.56 6.27,-26.6 0,-10.04 -2.09,-18.9 -6.27,-26.6 -4.18,-7.7 -9.99,-13.68 -17.44,-17.94 -7.44,-4.27 -15.94,-6.4 -25.47,-6.4 -9.54,0 -17.99,2.13 -25.35,6.4 -7.36,4.26 -13.13,10.24 -17.31,17.94 -4.18,7.7 -6.28,16.56 -6.28,26.6 0,10.04 2.1,18.9 6.28,26.6 4.18,7.7 9.95,13.68 17.31,17.94 7.36,4.27 15.73,6.4 25.1,6.4zm208.79 -55.46c0,1.84 -0.17,5.11 -0.5,9.79l-105.65 0c1,14.05 5.89,25.26 14.68,33.63 8.78,8.36 19.86,12.54 33.25,12.54 7.69,0 15.51,-1.5 23.46,-4.51 7.95,-3.01 14.68,-7.28 20.2,-12.8l7.78 9.79c-6.52,6.52 -14.39,11.58 -23.59,15.18 -9.2,3.6 -18.57,5.39 -28.1,5.39 -12.05,0 -22.76,-2.71 -32.13,-8.15 -9.36,-5.44 -16.68,-13.05 -21.95,-22.84 -5.27,-9.79 -7.91,-20.95 -7.91,-33.5 0,-12.38 2.64,-23.46 7.91,-33.25 5.27,-9.79 12.54,-17.44 21.83,-22.96 9.28,-5.52 19.87,-8.28 31.74,-8.28 17.91,0 32.21,5.31 42.92,15.93 10.7,10.62 16.06,25.31 16.06,44.04zm-59.23 -46.92c-12.71,0 -23.33,4.01 -31.87,12.04 -8.53,8.03 -13.55,18.82 -15.05,32.37l92.6 0c-0.17,-14.05 -4.31,-24.97 -12.43,-32.75 -8.11,-7.77 -19.19,-11.66 -33.25,-11.66zm183.06 -33.91c-1.82,-0.56 -7.68,-5.16 -15.66,-7.28 -6.7,-1.78 -14.42,-2.68 -21.62,-1.55 -10.18,1.59 -17.24,4.91 -25.05,10.26 -1.78,1.22 -30.93,30.35 -32.49,32.34 -0.98,1.25 -1.93,2.05 -2.84,3.29 -0.84,1.15 -1.71,2.18 -2.44,3.32 -0.89,1.4 -1.43,2.4 -2.25,3.86 -9.66,17.11 -7.38,40.73 3.21,55.33 1.83,2.52 3.3,4.5 5.13,6.41 5.42,5.65 14.87,11.01 22.35,13.31 19.29,5.92 39.34,-0.07 52.96,-13.37 4.08,-3.99 7.84,-7.84 11.9,-11.86 4.01,-3.97 7.75,-7.69 11.75,-11.66 3.03,-3.01 9.41,-7.63 6.91,-15.67 -1.59,-5.08 -8.09,-10.12 -14.95,-7.16 -4.49,1.94 -9.71,8.07 -12.72,11.07 -3.99,3.99 -7.71,7.72 -11.7,11.71 -3.34,3.33 -8.12,8.84 -12.26,11.51 -11.85,7.63 -25.33,6.36 -35.68,-1.76 -7.97,-6.24 -14.22,-21.32 -8.09,-34.44 3.83,-8.18 15.63,-18.51 22.15,-25.03 6.39,-6.39 17.03,-17.77 24.14,-23.06 6.76,-5.03 17.21,-8.91 25.99,-9.57 3.57,-0.27 8.48,0.32 11.26,0z"/>
 </g>
</svg>
