<?xml version="1.0" encoding="UTF-8"?>
<!DOCTYPE svg PUBLIC "-//W3C//DTD SVG 1.1//EN" "http://www.w3.org/Graphics/SVG/1.1/DTD/svg11.dtd">
<!-- Creator: CorelDRAW 2021.5 -->
<svg xmlns="http://www.w3.org/2000/svg" xml:space="preserve" width="86.9536mm" height="36.5916mm" version="1.1" style="shape-rendering:geometricPrecision; text-rendering:geometricPrecision; image-rendering:optimizeQuality; fill-rule:evenodd; clip-rule:evenodd"
viewBox="0 0 1007.07 423.79"
 xmlns:xlink="http://www.w3.org/1999/xlink"
 xmlns:xodm="http://www.corel.com/coreldraw/odm/2003">
 <defs>
  <style type="text/css">
   <![CDATA[
    .fil0 {fill:#33CC66}
    .fil2 {fill:#33CC66;fill-rule:nonzero}
    .fil1 {fill:white;fill-rule:nonzero}
   ]]>
  </style>
 </defs>
 <g id="Layer_x0020_1">
  <metadata id="CorelCorpID_0Corel-Layer"/>
  <g id="_2201392984560">
   <path class="fil0" d="M141.18 0.57c7.61,-2.21 15.57,2.17 17.78,9.78 0.41,1.43 0.6,2.87 0.57,4.28l89.47 37.04 77.47 -22.49 51.52 177.5 -44.08 -1.78 -35.96 -123.88 -246.12 71.44 50.02 172.32 6.82 -1.98 55.96 27.32 -91.3 26.5 -73.34 -252.68 20.1 -5.83 57.37 -16.65 55.74 -79.19c-0.78,-1.18 -1.39,-2.49 -1.81,-3.91 -2.21,-7.61 2.17,-15.57 9.78,-17.78zm14.35 23.73c-1.69,1.76 -3.84,3.11 -6.35,3.84 -2.5,0.73 -5.05,0.74 -7.41,0.16l-48.21 68.49 139.35 -40.45 -77.39 -32.04z"/>
   <path class="fil1" d="M128.28 298.01c-0.12,-1.54 -0.21,-2.93 -0.27,-4.18 -0.06,-1.24 -0.09,-2.4 -0.09,-3.47 0,-4.27 0.53,-9.01 1.6,-14.22 3.91,-19.79 11.32,-35.43 22.22,-46.93 10.43,-10.9 22.99,-17.18 37.68,-18.84 1.66,-0.12 3.23,-0.27 4.71,-0.44 1.48,-0.18 3.11,-0.27 4.89,-0.27 7.35,0 12.59,1.81 15.73,5.42 3.14,3.62 5.3,10.1 6.49,19.47 0.24,1.89 0.36,3.44 0.36,4.62 0,2.25 -0.18,4.27 -0.53,6.04 -0.35,1.78 -0.89,3.97 -1.6,6.58 -2.25,6.87 -4.68,11.85 -7.29,14.93 -1.66,2.01 -3.67,3.02 -6.04,3.02 -2.25,0 -4.21,-1.01 -5.87,-3.02 -2.25,-2.73 -3.38,-5.99 -3.38,-9.78 0,-5.21 2.31,-12.09 6.93,-20.62l1.96 -3.02c0.59,-0.95 0.89,-2.07 0.89,-3.38 0,-0.47 0,-0.95 0,-1.42 -0.12,-0.36 -0.24,-0.77 -0.35,-1.24 -0.47,-2.49 -1.84,-4.47 -4.09,-5.96 -2.25,-1.48 -5.33,-2.22 -9.24,-2.22 -3.32,0 -7.29,0.68 -11.91,2.04 -4.62,1.36 -8.95,4.35 -12.98,8.98 -4.03,4.62 -7.82,11.61 -11.38,20.98l-3.91 12.8c-1.3,5.09 -2.25,9.98 -2.84,14.66 -0.59,4.68 -0.89,9.04 -0.89,13.07 0,13.16 3.08,23.11 9.24,29.86 6.16,6.76 14.69,10.13 25.6,10.13 6.99,0 13.27,-1.42 18.84,-4.27 2.84,-1.54 5.24,-3.02 7.2,-4.44 1.95,-1.42 3.47,-2.73 4.53,-3.91l5.15 -5.86c2.49,-0.47 3.91,0.95 4.27,4.27 0,1.9 -0.86,3.79 -2.58,5.69 -1.72,1.9 -3.88,3.79 -6.49,5.69l-7.64 5.69 -0.89 0.53c-3.79,2.25 -8.44,4.03 -13.95,5.33 -5.51,1.3 -11.23,1.95 -17.15,1.95 -11.02,0 -20.5,-3.08 -28.44,-9.24 -7.94,-6.16 -13.51,-14.76 -16.71,-25.78 -0.47,-1.9 -0.83,-3.47 -1.07,-4.71 -0.24,-1.24 -0.47,-2.76 -0.71,-4.53zm114.83 -8.53l-1.42 0.89c-1.54,0.83 -2.9,1.24 -4.09,1.24 -1.54,0 -2.43,-0.71 -2.67,-2.13 -0.12,-0.95 -0.18,-1.66 -0.18,-2.13 0,-0.59 0.12,-1.36 0.36,-2.31l0.18 -1.96 0.89 -5.16c0.59,-3.08 1.39,-5.01 2.4,-5.78 1.01,-0.77 3.35,-1.15 7.02,-1.15 0.24,-0.24 0.35,-0.47 0.35,-0.71 0.71,-1.78 1.07,-4.8 1.07,-9.06 0,-1.18 0.06,-2.19 0.18,-3.02 0.59,-2.84 1.13,-5.63 1.6,-8.35l1.07 -6.04c1.3,-7.23 2.58,-12.8 3.82,-16.71 1.25,-3.91 2.99,-8.24 5.25,-12.98l-1.78 -4.09 5.87 -1.42 3.2 -2.67 6.58 -1.96c2.49,-0.83 4.56,-1.24 6.22,-1.24 3.08,0 4.62,1.48 4.62,4.44 0,1.78 -0.71,3.14 -2.13,4.09l2.67 0.89 4.44 1.6 2.85 1.07c5.57,2.37 8.89,4.15 9.95,5.33 1.07,1.19 2.02,4.5 2.84,9.95l1.25 9.06 0.35 3.02 0.53 6.57 0.53 8c0,3.91 0.12,6.1 0.36,6.57 0.24,0.59 1.42,1.01 3.56,1.25 0.59,0.71 0.89,1.42 0.89,2.13 0,3.44 -1.48,5.15 -4.44,5.15l0 6.4 -0.18 6.4 -0.18 8 -0.18 6.93 -0.18 3.73 -0.36 11.2 -0.53 11.02 -0.18 2.13 -0.53 8.89c-1.19,2.25 -3.32,3.55 -6.4,3.91 0,-4.03 -0.09,-7.67 -0.27,-10.93 -0.18,-3.26 -0.56,-8.21 -1.16,-14.84l-0.18 -1.95 -1.07 -12.44 -0.36 -2.13 -0.89 -11.55 -0.35 -3.38 -0.89 -8.35 -4.8 1.42 -4.44 1.42 -8.36 2.49 -9.24 3.02 -4.98 1.78 -4.45 1.42 -1.24 5.16 -1.07 4.62 -2.13 10.31 -4.8 21.69 -2.31 11.37c-0.36,2.49 -2.43,4.33 -6.22,5.51 -0.95,0.35 -2.02,0.42 -3.2,0.18 -1.78,-0.59 -2.55,-1.48 -2.31,-2.67 0.24,-1.66 0.44,-3.05 0.62,-4.18 0.18,-1.12 0.62,-2.87 1.33,-5.24 0.24,-1.07 0.89,-4.95 1.96,-11.64 1.07,-6.69 2.19,-13.9 3.38,-21.6l0.36 -1.78 1.6 -8.71zm49.42 -23.11c0,-3.08 -0.18,-5.9 -0.53,-8.44 -0.35,-2.55 -0.95,-6.25 -1.78,-11.11 -1.42,-8.06 -2.61,-13.01 -3.55,-14.84 -0.95,-1.84 -3.61,-3.82 -8,-5.95l-3.91 -1.95 -4.62 11.2 -1.6 4.27 -1.25 4.09 -1.6 5.87 -2.13 7.29 -0.89 3.2 -1.42 5.16 -1.42 4.98 8.53 -0.71c4.03,-0.35 7.7,-0.68 11.02,-0.98 3.32,-0.3 7.7,-0.98 13.15,-2.04zm31.11 81.77c0.95,-8.06 1.92,-15.44 2.93,-22.13 1.01,-6.7 2.64,-16.62 4.89,-29.77l3.02 -17.6 1.42 -8 2.31 -12.26 2.31 -12.09c1.3,-6.64 2.19,-11.49 2.67,-14.58 0.47,-3.08 0.71,-5.51 0.71,-7.29l0.18 -5.33c0,-1.54 1.36,-3.14 4.09,-4.8 3.32,-2.01 7.17,-3.02 11.55,-3.02 3.79,0 6.16,0.89 7.11,2.67 0.95,1.78 2.67,8.3 5.15,19.55 0.59,2.37 1.13,4.39 1.6,6.04 2.25,6.99 4.56,13.92 6.93,20.8l2.31 6.75 6.75 20.09c2.84,8.18 5.07,13.89 6.67,17.15 1.6,3.26 3.88,6.9 6.84,10.93 1.54,-2.49 2.81,-5.33 3.82,-8.53 1.01,-3.2 2.4,-9.19 4.18,-17.95 4.15,-20.38 6.22,-33.3 6.22,-38.75 0,-17.54 0.59,-28.74 1.78,-33.59 1.18,-4.86 3.5,-7.58 6.93,-8.18 1.3,-0.24 2.49,-0.12 3.55,0.36 1.07,0.47 1.54,1.07 1.42,1.78 0,11.14 -0.21,20.18 -0.62,27.11 -0.41,6.93 -1.15,14.19 -2.22,21.78 -0.12,1.07 -1.25,8.29 -3.38,21.69l-1.95 11.56c-3.79,21.09 -5.81,32.11 -6.04,33.06 -1.54,7.82 -3.55,12.26 -6.04,13.33 -2.49,1.07 -4.5,1.87 -6.04,2.4 -1.54,0.53 -2.79,0.8 -3.73,0.8 -3.32,0 -6.7,-3.91 -10.13,-11.73 -0.83,-2.02 -3.79,-9.54 -8.89,-22.58l-8.53 -22.93 -3.73 -10.31 -5.33 -15.64 -0.53 -1.42 -3.02 -6.75c-1.42,3.44 -2.64,6.64 -3.64,9.6 -1.01,2.96 -2.52,7.94 -4.53,14.93l-3.02 10.67 -3.55 12.44c-1.78,6.52 -3.17,11.7 -4.18,15.55 -1.01,3.85 -1.69,6.9 -2.04,9.15 -2.01,9.72 -3.94,16.53 -5.78,20.44 -1.84,3.91 -4,5.87 -6.49,5.87 -0.95,0 -2.25,-0.42 -3.91,-1.25zm163.18 -33.42l6.04 -10.49c4.27,-7.58 8.12,-15.35 11.55,-23.29 3.44,-7.94 6.7,-16.65 9.78,-26.13 1.66,-4.98 2.78,-8.41 3.38,-10.31 0.59,-1.9 1.24,-4.21 1.95,-6.93 2.25,-8.53 4.59,-14.63 7.02,-18.31 2.43,-3.67 5.24,-5.51 8.44,-5.51 0.71,0 2.04,0.33 4,0.98 1.95,0.65 2.81,1.69 2.58,3.11l-6.04 22.75c-3.79,13.04 -7.64,24.59 -11.55,34.66 -4.5,11.26 -8,19.58 -10.49,24.98 -2.49,5.39 -4.62,9.45 -6.4,12.17 -4.15,6.52 -6.81,10.73 -8,12.62 -2.84,4.5 -4.27,7.35 -4.27,8.53 0,0.71 0.35,1.72 1.07,3.02 -1.07,1.66 -2.43,3.02 -4.09,4.09 -2.84,2.25 -5.92,3.67 -9.24,4.27 -0.95,0.24 -1.87,0.36 -2.76,0.36 -0.89,0 -1.57,0 -2.04,0 -1.78,0 -3.2,-0.24 -4.27,-0.71 -2.13,-0.95 -3.2,-2.55 -3.2,-4.8 0,-1.18 0.3,-2.31 0.89,-3.38 0.59,-1.07 1.42,-1.78 2.49,-2.13l-2.67 -8.71 -3.91 -12.44c-4.74,-15.64 -8.32,-28.09 -10.75,-37.33 -2.43,-9.24 -4.06,-16.29 -4.89,-21.15 -2.61,-15.17 -3.91,-25.54 -3.91,-31.11 0,-3.91 0.47,-6.78 1.42,-8.62 0.95,-1.83 2.84,-3.88 5.69,-6.13 1.54,-1.18 2.93,-1.95 4.18,-2.31 1.25,-0.36 2.16,-0.53 2.75,-0.53 1.66,0 3.08,0.41 4.27,1.24 1.19,0.83 1.78,1.9 1.78,3.2l1.78 28.8c0,6.04 2.61,19.97 7.82,41.77 3.08,13.16 5.57,22.4 7.47,27.73l0.89 2.49 1.25 3.55zm64.35 -25.24l-1.42 0.89c-1.54,0.83 -2.9,1.24 -4.09,1.24 -1.54,0 -2.43,-0.71 -2.67,-2.13 -0.12,-0.95 -0.18,-1.66 -0.18,-2.13 0,-0.59 0.12,-1.36 0.36,-2.31l0.18 -1.96 0.89 -5.16c0.59,-3.08 1.39,-5.01 2.4,-5.78 1.01,-0.77 3.35,-1.15 7.02,-1.15 0.24,-0.24 0.36,-0.47 0.36,-0.71 0.71,-1.78 1.07,-4.8 1.07,-9.06 0,-1.18 0.06,-2.19 0.18,-3.02 0.59,-2.84 1.12,-5.63 1.6,-8.35l1.07 -6.04c1.3,-7.23 2.58,-12.8 3.82,-16.71 1.25,-3.91 2.99,-8.24 5.24,-12.98l-1.78 -4.09 5.87 -1.42 3.2 -2.67 6.58 -1.96c2.49,-0.83 4.56,-1.24 6.22,-1.24 3.08,0 4.62,1.48 4.62,4.44 0,1.78 -0.71,3.14 -2.13,4.09l2.67 0.89 4.44 1.6 2.84 1.07c5.57,2.37 8.89,4.15 9.95,5.33 1.07,1.19 2.02,4.5 2.84,9.95l1.25 9.06 0.35 3.02 0.53 6.57 0.53 8c0,3.91 0.12,6.1 0.35,6.57 0.24,0.59 1.42,1.01 3.56,1.25 0.59,0.71 0.89,1.42 0.89,2.13 0,3.44 -1.48,5.15 -4.45,5.15l0 6.4 -0.18 6.4 -0.18 8 -0.18 6.93 -0.18 3.73 -0.36 11.2 -0.53 11.02 -0.18 2.13 -0.53 8.89c-1.19,2.25 -3.32,3.55 -6.4,3.91 0,-4.03 -0.09,-7.67 -0.27,-10.93 -0.18,-3.26 -0.56,-8.21 -1.16,-14.84l-0.18 -1.95 -1.07 -12.44 -0.36 -2.13 -0.89 -11.55 -0.35 -3.38 -0.89 -8.35 -4.8 1.42 -4.44 1.42 -8.36 2.49 -9.24 3.02 -4.98 1.78 -4.45 1.42 -1.24 5.16 -1.07 4.62 -2.13 10.31 -4.8 21.69 -2.31 11.37c-0.35,2.49 -2.43,4.33 -6.22,5.51 -0.95,0.35 -2.02,0.42 -3.2,0.18 -1.78,-0.59 -2.55,-1.48 -2.31,-2.67 0.24,-1.66 0.44,-3.05 0.62,-4.18 0.18,-1.12 0.62,-2.87 1.33,-5.24 0.24,-1.07 0.89,-4.95 1.96,-11.64 1.07,-6.69 2.19,-13.9 3.38,-21.6l0.36 -1.78 1.6 -8.71zm49.42 -23.11c0,-3.08 -0.18,-5.9 -0.53,-8.44 -0.36,-2.55 -0.95,-6.25 -1.78,-11.11 -1.42,-8.06 -2.6,-13.01 -3.55,-14.84 -0.95,-1.84 -3.61,-3.82 -8,-5.95l-3.91 -1.95 -4.62 11.2 -1.6 4.27 -1.25 4.09 -1.6 5.87 -2.13 7.29 -0.89 3.2 -1.42 5.16 -1.42 4.98 8.53 -0.71c4.03,-0.35 7.7,-0.68 11.02,-0.98 3.32,-0.3 7.7,-0.98 13.15,-2.04zm75.72 -34.49l2.13 -4.98c-2.96,-0.35 -5.98,0.21 -9.07,1.69 -3.08,1.48 -6.13,4.06 -9.15,7.73 -3.02,3.67 -4.53,7.7 -4.53,12.09 0,4.03 1.33,8.27 4,12.71 2.67,4.45 6.78,9.04 12.35,13.78 0.59,0.59 1.9,1.6 3.91,3.02 6.75,4.98 11.26,8.3 13.51,9.95 6.76,4.86 11.35,9.27 13.78,13.24 2.43,3.97 3.64,8.86 3.64,14.66l-0.36 3.38 1.6 -1.6 4.09 -3.91c0.59,-0.59 1.36,-0.35 2.31,0.71 0.95,1.07 1.24,2.73 0.89,4.98 -0.24,1.19 -0.89,2.43 -1.95,3.73 -1.54,1.78 -3.56,3.67 -6.04,5.69 -1.42,1.07 -2.93,2.46 -4.53,4.18 -1.6,1.72 -3.82,4.24 -6.67,7.56 -1.19,1.42 -3.61,3.17 -7.29,5.24 -3.67,2.07 -6.81,3.7 -9.42,4.89 -0.59,0.24 -1.75,0.68 -3.47,1.33 -1.72,0.65 -3.58,1.27 -5.6,1.87 -5.21,1.42 -9.75,2.55 -13.6,3.38 -3.85,0.83 -6.9,1.25 -9.15,1.25 -2.37,0 -4.33,-0.38 -5.87,-1.15 -1.54,-0.77 -3.32,-2.13 -5.33,-4.09 -2.02,-1.95 -3.02,-3.88 -3.02,-5.78 0,-1.3 0.47,-2.31 1.42,-3.02l7.11 -4.27 9.42 -4.44 0.53 -0.36 11.2 -3.91 4.8 -1.42 6.57 -1.95 9.42 -2.67 1.95 -0.53 2.67 -0.89c2.13,-0.83 3.2,-2.43 3.2,-4.8 0,-2.02 -0.77,-3.85 -2.31,-5.51l-5.87 -5.69 -16 -10.31c-2.84,-1.78 -5.69,-3.79 -8.53,-6.04 -2.37,-1.78 -5.16,-4.15 -8.35,-7.11 -7.94,-7.23 -11.91,-16.06 -11.91,-26.49 0,-8.06 2.49,-15.76 7.47,-23.11 5.45,-8.06 13.21,-14.75 23.29,-20.09l6.93 -3.02 15.82 -4.45c2.25,-0.59 4.41,-1.1 6.49,-1.51 2.07,-0.41 4.06,-0.62 5.96,-0.62 1.78,-0.12 3.29,0.5 4.53,1.87 1.25,1.36 1.87,3.11 1.87,5.24 0,3.2 -1.54,6.04 -4.62,8.53 -3.08,2.49 -8.71,5.21 -16.89,8.18 -3.91,1.42 -8.35,2.37 -13.33,2.84zm69.47 -23.57c-3.28,-4.84 -4.92,-10.46 -4.92,-16.85 0,-9.68 3.97,-18.49 11.92,-26.44 3.8,-3.8 8.38,-6.09 13.74,-6.87 5.36,-0.78 16.42,-1.17 33.18,-1.17 4.84,0 9.07,0.47 12.7,1.43 3.63,0.95 7.78,2.46 12.44,4.54 9.51,4.15 16.2,8.47 20.09,12.96 3.89,4.49 5.83,10.37 5.83,17.63 0,4.49 -0.6,9.51 -1.81,15.04 -1.21,5.53 -3.63,11.75 -7.26,18.66 -3.63,6.91 -8.55,14.34 -14.78,22.29 -3.63,4.84 -7.78,9.76 -12.44,14.77 -2.25,2.59 -6.4,6.91 -12.44,12.96 -7.95,8.12 -13.78,14.3 -17.5,18.53 -3.72,4.24 -7.73,9.38 -12.06,15.43l2.59 1.04 2.33 0.78c6.22,1.9 13.39,3.37 21.52,4.41 3.46,0.52 7.6,0.99 12.44,1.43 4.84,0.43 9.07,0.65 12.7,0.65 1.56,0 2.68,0 3.37,0 0.87,0 1.73,0 2.59,0 1.04,-0.35 1.73,-0.52 2.07,-0.52l23.85 -3.89c1.21,-0.69 2.29,-0.35 3.24,1.04 0.95,1.38 1.51,2.94 1.68,4.67 0,1.9 -0.74,3.76 -2.2,5.57 -1.47,1.81 -3.76,3.24 -6.87,4.28l-21.26 6.48 -18.92 3.89c-4.15,0.69 -8.73,1.04 -13.74,1.04 -2.59,0 -7.13,-0.09 -13.61,-0.26 -6.48,-0.17 -10.67,-0.26 -12.57,-0.26l-11.15 -1.04c-5.71,-0.86 -9.77,-1.64 -12.19,-2.33 -2.42,-0.69 -4.41,-1.47 -5.96,-2.33 -4.15,-2.42 -6.22,-5.7 -6.22,-9.85 0,-2.77 1.04,-5.44 3.11,-8.04 2.77,-3.46 6.09,-7.39 9.98,-11.8 3.89,-4.41 7.56,-8.34 11.02,-11.79l7.78 -7.78 18.41 -18.92 11.92 -12.19c5.36,-5.7 9.59,-10.41 12.7,-14.13 3.11,-3.72 5.36,-6.78 6.74,-9.2 5.53,-8.81 8.3,-16.76 8.3,-23.85 0,-12.79 -8.38,-20.74 -25.15,-23.85 -4.49,-0.69 -8.38,-1.17 -11.67,-1.43 -3.28,-0.26 -7.17,-0.39 -11.66,-0.39 -8.47,0 -14,0.73 -16.59,2.2 -2.59,1.47 -5.53,5.14 -8.81,11.02l-5.44 10.37 -1.04 2.07zm170.57 -31.89l-0.26 -1.81c-0.52,-2.42 -0.78,-4.49 -0.78,-6.22 0,-3.28 1.12,-5.88 3.37,-7.78 6.4,-5.88 11.84,-9.85 16.33,-11.93 4.49,-2.07 8.04,-2.76 10.63,-2.07 2.07,0.52 3.54,1.6 4.41,3.24 0.87,1.64 0.95,3.33 0.26,5.05l-12.44 24.37c-1.04,1.9 -2.68,5.87 -4.92,11.92 -3.8,10.03 -5.96,15.81 -6.48,17.37 -2.07,5.7 -4.49,12.62 -7.26,20.74 -1.9,5.53 -3.11,9.5 -3.63,11.92 -1.38,5.36 -2.46,9.64 -3.24,12.83 -0.78,3.2 -1.17,5.49 -1.17,6.87 0,2.76 1.08,4.49 3.24,5.19 2.16,0.69 6.35,1.04 12.57,1.04l19.18 1.29c2.42,0 6.05,-0.09 10.89,-0.26 4.84,-0.17 8.56,-0.26 11.15,-0.26l0 -3.11 0.26 -0.78 0.78 -17.11 0.52 -9.59 0.26 -3.63c2.07,-15.9 3.5,-25.66 4.28,-29.29 0.78,-3.63 2.12,-5.44 4.02,-5.44 2.42,0.52 4.67,0.78 6.74,0.78 4.32,0 6.83,0.09 7.52,0.26 1.56,0.52 2.33,1.64 2.33,3.37 0,1.21 -0.17,2.51 -0.52,3.89 -1.38,4.32 -2.51,8.04 -3.37,11.15l-3.37 17.37 -1.56 10.37 -0.52 5.19 -1.3 7.78 -0.26 3.11 -0.26 1.56 0 2.59 9.85 -2.59 9.07 -4.41c0.69,-0.52 1.43,-0.3 2.2,0.65 0.78,0.95 1.34,2.38 1.68,4.28 0.52,3.46 -0.3,6.18 -2.46,8.17 -2.16,1.99 -6.96,4.28 -14.39,6.87l-8.56 3.11 -0.78 4.15 -2.07 13.22 -2.33 17.11 0.26 16.07c0.17,1.38 -0.82,2.76 -2.98,4.15 -2.16,1.38 -4.88,2.59 -8.17,3.63l-3.37 0.78c-0.52,-5.18 -0.78,-10.28 -0.78,-15.29 0,-7.26 0.35,-13.35 1.04,-18.27 0.69,-4.93 1.21,-8.69 1.56,-11.28l0.78 -5.44 0.78 -4.41 -6.22 1.29c-12.44,2.42 -22.98,3.63 -31.62,3.63 -11.41,0 -21.43,-1.82 -30.07,-5.44 -1.04,-4.15 -1.56,-8.12 -1.56,-11.93 0,-3.97 0.78,-10.28 2.33,-18.92l3.63 -19.96 1.56 -7.78c2.25,-11.23 4.28,-20.31 6.09,-27.22 1.81,-6.91 4.19,-14.95 7.13,-24.11z"/>
   <path class="fil2" d="M401.7 375.48c-0.66,0 -0.99,-0.43 -0.99,-1.28 0,-2.09 0.48,-3.13 1.45,-3.13l27.41 0c0.66,0 0.99,0.43 0.99,1.28 0,2.09 -0.49,3.14 -1.45,3.14l-11.03 0 -3.66 35.07c-0.11,0.85 -0.93,1.28 -2.44,1.28l-0.46 0c-1.47,0 -2.21,-0.42 -2.21,-1.28l3.66 -35.07 -11.26 0zm56.21 32.4l1.57 -0.29c0.23,0 0.35,0.21 0.35,0.64 0,0.42 -0.07,1.02 -0.2,1.77 -0.13,0.76 -0.58,1.29 -1.34,1.6 -0.75,0.31 -1.48,0.46 -2.18,0.46 -3.48,0 -5.23,-1.9 -5.23,-5.69l0 -0.58c-2.21,4.18 -5.22,6.27 -9.06,6.27 -2.21,0 -4.28,-0.81 -6.21,-2.44 -1.04,-0.89 -1.89,-2.2 -2.52,-3.92 -0.64,-1.72 -0.96,-3.79 -0.96,-6.19 0,-5.46 1.3,-9.91 3.89,-13.35 2.59,-3.45 6.04,-5.17 10.34,-5.17 2.71,0 5.17,1.05 7.37,3.14 0.23,-0.74 0.43,-1.26 0.58,-1.57 0.46,-0.89 1.14,-1.33 2.03,-1.33l0.35 0c0.97,0 1.45,0.4 1.45,1.22 -1.55,14.32 -2.32,21.89 -2.32,22.7 0,0.81 0.06,1.39 0.17,1.74 0.11,0.35 0.29,0.58 0.52,0.69 0.43,0.19 0.89,0.29 1.39,0.29zm-11.09 -22.65c-6.42,0 -9.64,4.64 -9.64,13.94 0,5.77 1.92,8.65 5.75,8.65 1.55,0 3.12,-0.76 4.7,-2.29 1.59,-1.53 2.92,-4.04 4.01,-7.52l0.75 -7.61c0.08,-0.7 0.23,-1.66 0.46,-2.9 -1.89,-1.51 -3.91,-2.26 -6.04,-2.26zm23.63 -17.19l0.23 0c1.47,0 2.21,0.42 2.21,1.28l-1.86 17.71c2.28,-4.02 5.36,-6.04 9.23,-6.04 2.44,0 4.76,0.79 6.97,2.38 1.16,0.81 2.1,2.08 2.82,3.8 0.72,1.72 1.07,3.78 1.07,6.18 0,5.46 -1.41,9.94 -4.24,13.44 -2.83,3.5 -6.54,5.25 -11.15,5.25 -2.98,0 -5.55,-1.05 -7.72,-3.14 -0.54,1.93 -1.35,2.9 -2.44,2.9l-0.47 0c-0.97,0 -1.45,-0.42 -1.45,-1.28l4.35 -41.23c0.12,-0.85 0.93,-1.28 2.44,-1.28zm-1.51 37.51c1.78,1.51 3.79,2.27 6.04,2.27 2.24,0 4.11,-0.4 5.6,-1.19 1.49,-0.79 2.62,-1.89 3.4,-3.28 1.39,-2.6 2.09,-5.81 2.09,-9.64 0,-5.65 -2.3,-8.48 -6.91,-8.48 -1.59,0 -3.19,0.75 -4.82,2.24 -1.63,1.49 -3,3.96 -4.12,7.4l-0.81 7.78c-0.11,0.85 -0.27,1.82 -0.46,2.9zm36.98 2.32l1.57 -0.29c0.23,0 0.35,0.21 0.35,0.64 0,0.42 -0.07,1.02 -0.2,1.77 -0.13,0.76 -0.58,1.29 -1.34,1.6 -0.76,0.31 -1.48,0.46 -2.18,0.46 -3.48,0 -5.23,-1.9 -5.23,-5.69 0,-1.74 0.93,-11.19 2.79,-28.33l0.99 -8.71c0.12,-0.85 0.93,-1.28 2.44,-1.28l0.23 0c1.47,0 2.21,0.42 2.21,1.28 -2.48,22.95 -3.72,34.87 -3.72,35.74 0,0.87 0.06,1.48 0.17,1.83 0.12,0.35 0.31,0.58 0.58,0.69 0.39,0.19 0.83,0.29 1.33,0.29zm8.42 -8.3c0,-5.11 1.18,-9.39 3.54,-12.83 1.2,-1.78 2.8,-3.18 4.82,-4.21 2.01,-1.03 4.34,-1.54 6.97,-1.54 3.79,0 6.69,1.07 8.68,3.22 1.99,2.15 2.99,5.27 2.99,9.38 0,5.92 -1.33,10.48 -3.98,13.67 -2.65,3.19 -6.32,4.79 -11,4.79 -3.95,0 -6.94,-1.06 -8.97,-3.19 -2.03,-2.13 -3.05,-5.23 -3.05,-9.29zm12.31 8.3c3.1,0 5.47,-1.21 7.14,-3.63 1.66,-2.42 2.5,-5.93 2.5,-10.54 0,-2.9 -0.59,-5.05 -1.77,-6.45 -1.18,-1.39 -3.01,-2.09 -5.49,-2.09 -3.13,0 -5.53,1.26 -7.2,3.77 -1.67,2.52 -2.5,6 -2.5,10.45 0,5.65 2.44,8.48 7.32,8.48zm46.45 0l1.57 -0.29c0.23,0 0.35,0.21 0.35,0.64 0,0.42 -0.07,1.02 -0.2,1.77 -0.14,0.76 -0.58,1.29 -1.34,1.6 -0.76,0.31 -1.48,0.46 -2.18,0.46 -3.49,0 -5.23,-1.9 -5.23,-5.69l0 -0.58c-2.79,4.18 -6.23,6.27 -10.34,6.27 -5.11,0 -7.66,-2.52 -7.66,-7.55l2.21 -22.01c0.12,-0.85 0.93,-1.28 2.44,-1.28l0.23 0c1.47,0 2.21,0.42 2.21,1.28 -1.39,13.35 -2.09,20.3 -2.09,20.85 0,2.98 1.47,4.47 4.41,4.47 1.62,0 3.3,-0.75 5.02,-2.27 1.72,-1.51 3.15,-4.04 4.27,-7.6l1.63 -15.45c0.11,-0.85 0.93,-1.28 2.44,-1.28l0.23 0c1.47,0 2.21,0.42 2.21,1.28 -1.51,14.17 -2.26,21.69 -2.26,22.56 0,0.87 0.06,1.48 0.17,1.83 0.12,0.35 0.29,0.58 0.52,0.69 0.43,0.19 0.89,0.29 1.39,0.29zm10.16 -22.7l-0.06 -1.97c0,-0.89 1.08,-1.34 3.25,-1.34 1.01,0 1.51,1.45 1.51,4.35 0,0.16 -0.02,0.35 -0.06,0.58 0.93,-1.82 2.08,-3.24 3.46,-4.27 1.37,-1.03 2.8,-1.54 4.27,-1.54 1.94,0 2.9,0.74 2.9,2.21 0,0.7 -0.19,1.41 -0.58,2.15 -0.39,0.73 -0.76,1.1 -1.1,1.1 -0.08,0 -0.33,-0.11 -0.75,-0.32 -0.43,-0.21 -0.93,-0.32 -1.51,-0.32 -1.31,0 -2.64,0.7 -3.98,2.09 -1.34,1.39 -2.47,3.75 -3.4,7.08l-1.62 15.56c-0.12,0.85 -0.93,1.28 -2.44,1.28l-0.23 0c-1.47,0 -2.21,-0.41 -2.21,-1.22 1.7,-15.1 2.55,-23.57 2.55,-25.43zm24.73 -17.13l0.7 0c1.47,0 2.21,0.42 2.21,1.28l-0.35 3.43c0,0.85 -0.74,1.28 -2.21,1.28l-0.7 0c-1.62,0 -2.44,-0.43 -2.44,-1.28l0.35 -3.43c0.12,-0.85 0.93,-1.28 2.44,-1.28zm0.99 39.83l1.57 -0.29c0.23,0 0.35,0.21 0.35,0.64 0,0.42 -0.07,1.02 -0.2,1.77 -0.14,0.76 -0.58,1.29 -1.34,1.6 -0.76,0.31 -1.48,0.46 -2.18,0.46 -3.45,0 -5.17,-1.84 -5.17,-5.52 0,-1.39 0.39,-5.75 1.16,-13.07 0.77,-7.32 1.18,-10.97 1.22,-10.97 0.12,-0.85 0.93,-1.28 2.44,-1.28l0.23 0c1.47,0 2.21,0.42 2.21,1.28 -1.55,14.17 -2.32,21.72 -2.32,22.67 0,0.95 0.12,1.61 0.35,1.97 0.23,0.37 0.46,0.58 0.7,0.64 0.23,0.06 0.56,0.09 0.99,0.09zm23.75 -22.7l-0.06 -1.97c0,-0.89 1.09,-1.34 3.25,-1.34 1.01,0 1.51,1.45 1.51,4.35 0,0.27 -0.02,0.52 -0.06,0.76 2.24,-3.99 5.38,-5.98 9.41,-5.98 2.48,0 4.8,0.79 6.97,2.38 1.16,0.85 2.1,2.13 2.81,3.83 0.72,1.7 1.07,3.72 1.07,6.04 0,5.54 -1.32,10.05 -3.98,13.56 -2.65,3.5 -6.18,5.25 -10.6,5.25 -2.98,0 -5.59,-1.03 -7.84,-3.08l-1.39 13.53c-0.12,0.85 -0.93,1.28 -2.44,1.28l-0.23 0c-1.47,0 -2.21,-0.41 -2.21,-1.22 2.52,-23.07 3.77,-35.54 3.77,-37.39zm12.95 0.06c-1.59,0 -3.2,0.75 -4.85,2.26 -1.65,1.51 -3.03,3.97 -4.15,7.38 -0.27,2.32 -0.62,5.79 -1.05,10.39 1.97,1.74 4.22,2.61 6.74,2.61 6.81,0 10.22,-4.76 10.22,-14.28 0,-5.57 -2.3,-8.36 -6.91,-8.36zm39.08 20.55c0.77,-0.5 1.24,-0.75 1.39,-0.75 0.27,0 0.41,0.3 0.41,0.9 0,0.6 -0.1,1.4 -0.29,2.41 -0.23,1.2 -1.43,2.12 -3.6,2.76 -2.17,0.64 -4.14,0.96 -5.92,0.96 -8.75,0 -13.12,-4.01 -13.12,-12.02 0,-5.61 1.32,-10.19 3.95,-13.73 2.63,-3.54 6.64,-5.31 12.02,-5.31 3.29,0 5.74,0.82 7.34,2.47 1.61,1.65 2.41,3.42 2.41,5.31 0,1.9 -0.44,3.56 -1.31,4.99 -0.87,1.43 -2.08,2.54 -3.63,3.31 -2.98,1.51 -6.56,2.26 -10.74,2.26 -1.9,0 -3.56,-0.13 -4.99,-0.41l0 0.58c0,3.06 0.73,5.22 2.18,6.48 1.45,1.26 3.55,1.89 6.3,1.89 2.75,0 5.28,-0.7 7.61,-2.09zm-5.69 -20.61c-5.81,0 -9.18,3.33 -10.1,9.99l4.12 0c3.29,0 5.9,-0.43 7.84,-1.28 0.85,-0.39 1.62,-0.99 2.32,-1.8 0.7,-0.81 1.05,-1.78 1.05,-2.9 0,-1.12 -0.47,-2.07 -1.42,-2.84 -0.95,-0.77 -2.22,-1.16 -3.8,-1.16zm40.53 3.37l-1.68 16.96c0,1.16 0.23,1.86 0.7,2.09 0.43,0.19 0.89,0.29 1.39,0.29 0,0 0.52,-0.1 1.57,-0.29 0.23,0 0.35,0.21 0.35,0.64 0,0.42 -0.07,1.02 -0.2,1.77 -0.13,0.76 -0.58,1.29 -1.34,1.6 -0.75,0.31 -1.48,0.46 -2.18,0.46 -3.48,0 -5.23,-1.9 -5.23,-5.69 0,-0.7 0.27,-3.57 0.81,-8.62 0.54,-5.05 0.82,-7.73 0.82,-8.04 0,-2.98 -1.47,-4.47 -4.41,-4.47 -1.59,0 -3.24,0.72 -4.97,2.15 -1.72,1.43 -3.15,3.83 -4.27,7.2l-1.68 15.97c-0.12,0.85 -0.93,1.28 -2.44,1.28l-0.23 0c-1.47,0 -2.21,-0.41 -2.21,-1.22 1.7,-15.13 2.55,-23.61 2.55,-25.43l-0.06 -1.97c0,-0.89 1.09,-1.34 3.25,-1.34 1.01,0 1.51,1.45 1.51,4.35 0,0.19 -0.02,0.41 -0.06,0.64 2.86,-3.91 6.31,-5.86 10.33,-5.86 5.11,0 7.66,2.52 7.66,7.55zm15.5 -14.57l0.23 0c1.47,0 2.21,0.42 2.21,1.28l-0.64 6.1 4.94 0c0.62,0 0.93,0.37 0.93,1.1 0,0.77 -0.27,1.48 -0.81,2.12 -0.54,0.64 -1.14,0.96 -1.8,0.96l-3.72 0c-1.32,11.92 -1.97,18.27 -1.97,19.04 0,2.21 0.93,3.31 2.79,3.31 0.7,0 1.3,-0.07 1.8,-0.2 0.5,-0.14 0.77,-0.2 0.81,-0.2 0.27,0 0.41,0.24 0.41,0.73 0,0.48 -0.1,1.13 -0.29,1.94 -0.31,1.28 -1.63,1.92 -3.95,1.92 -4.34,0 -6.5,-2.13 -6.5,-6.39l2.03 -20.15 -2.9 0c-0.66,0 -0.99,-0.52 -0.99,-1.57 0,-1.74 0.48,-2.61 1.45,-2.61l2.9 0 0.7 -6.1c0.12,-0.85 0.91,-1.28 2.38,-1.28zm15.5 11.21l-0.06 -1.97c0,-0.89 1.08,-1.34 3.25,-1.34 1.01,0 1.51,1.45 1.51,4.35 0,0.16 -0.02,0.35 -0.06,0.58 0.93,-1.82 2.08,-3.24 3.46,-4.27 1.37,-1.03 2.8,-1.54 4.27,-1.54 1.94,0 2.9,0.74 2.9,2.21 0,0.7 -0.19,1.41 -0.58,2.15 -0.39,0.73 -0.76,1.1 -1.1,1.1 -0.08,0 -0.33,-0.11 -0.75,-0.32 -0.43,-0.21 -0.93,-0.32 -1.51,-0.32 -1.31,0 -2.64,0.7 -3.98,2.09 -1.34,1.39 -2.47,3.75 -3.4,7.08l-1.62 15.56c-0.12,0.85 -0.93,1.28 -2.44,1.28l-0.23 0c-1.47,0 -2.21,-0.41 -2.21,-1.22 1.7,-15.1 2.55,-23.57 2.55,-25.43zm43.43 22.7l1.57 -0.29c0.23,0 0.35,0.21 0.35,0.64 0,0.42 -0.07,1.02 -0.2,1.77 -0.14,0.76 -0.58,1.29 -1.34,1.6 -0.76,0.31 -1.48,0.46 -2.18,0.46 -3.48,0 -5.23,-1.9 -5.23,-5.69l0 -0.58c-2.79,4.18 -6.23,6.27 -10.34,6.27 -5.11,0 -7.66,-2.52 -7.66,-7.55l2.21 -22.01c0.12,-0.85 0.93,-1.28 2.44,-1.28l0.23 0c1.47,0 2.21,0.42 2.21,1.28 -1.39,13.35 -2.09,20.3 -2.09,20.85 0,2.98 1.47,4.47 4.41,4.47 1.62,0 3.3,-0.75 5.02,-2.27 1.72,-1.51 3.14,-4.04 4.27,-7.6l1.62 -15.45c0.12,-0.85 0.93,-1.28 2.44,-1.28l0.23 0c1.47,0 2.21,0.42 2.21,1.28 -1.51,14.17 -2.26,21.69 -2.26,22.56 0,0.87 0.06,1.48 0.17,1.83 0.12,0.35 0.29,0.58 0.52,0.69 0.43,0.19 0.89,0.29 1.39,0.29zm41.4 -1.8c0.23,0 0.35,0.31 0.35,0.93 0,0.62 -0.1,1.42 -0.29,2.41 -0.2,0.99 -1.21,1.67 -3.05,2.06 -1.84,0.39 -3.57,0.58 -5.2,0.58 -4.18,0 -7.32,-0.97 -9.41,-2.9 -2.09,-1.94 -3.13,-4.85 -3.13,-8.74 0,-3.89 0.48,-7.2 1.45,-9.93 0.97,-2.73 2.63,-5 5,-6.79 2.36,-1.8 5.32,-2.7 8.88,-2.7 2.44,0 4.4,0.33 5.89,0.99 1.49,0.66 2.24,1.34 2.24,2.03 0,0.43 -0.26,1.02 -0.79,1.77 -0.52,0.75 -1.01,1.13 -1.48,1.13 -0.04,0 -0.27,-0.14 -0.7,-0.41 -1.35,-0.89 -3.39,-1.33 -6.1,-1.33 -2.71,0 -4.95,1.15 -6.71,3.45 -1.76,2.3 -2.64,5.93 -2.64,10.89 0,2.9 0.63,5.02 1.89,6.36 1.26,1.34 3.26,2 6.01,2 2.4,0 4.62,-0.47 6.68,-1.39 0.66,-0.27 1.02,-0.41 1.1,-0.41zm32.81 1.8l1.57 -0.29c0.23,0 0.35,0.21 0.35,0.64 0,0.42 -0.07,1.02 -0.2,1.77 -0.13,0.76 -0.58,1.29 -1.34,1.6 -0.75,0.31 -1.48,0.46 -2.18,0.46 -3.48,0 -5.23,-1.9 -5.23,-5.69l0 -0.58c-2.21,4.18 -5.23,6.27 -9.06,6.27 -2.21,0 -4.28,-0.81 -6.21,-2.44 -1.05,-0.89 -1.89,-2.2 -2.53,-3.92 -0.64,-1.72 -0.96,-3.79 -0.96,-6.19 0,-5.46 1.3,-9.91 3.89,-13.35 2.59,-3.45 6.04,-5.17 10.34,-5.17 2.71,0 5.17,1.05 7.37,3.14 0.23,-0.74 0.43,-1.26 0.58,-1.57 0.46,-0.89 1.14,-1.33 2.03,-1.33l0.35 0c0.97,0 1.45,0.4 1.45,1.22 -1.55,14.32 -2.32,21.89 -2.32,22.7 0,0.81 0.06,1.39 0.17,1.74 0.12,0.35 0.29,0.58 0.52,0.69 0.43,0.19 0.89,0.29 1.39,0.29zm-11.09 -22.65c-6.42,0 -9.64,4.64 -9.64,13.94 0,5.77 1.92,8.65 5.75,8.65 1.55,0 3.12,-0.76 4.7,-2.29 1.59,-1.53 2.92,-4.04 4.01,-7.52l0.75 -7.61c0.08,-0.7 0.23,-1.66 0.46,-2.9 -1.9,-1.51 -3.91,-2.26 -6.04,-2.26zm16.2 23.52c0,-2.09 0.31,-3.14 0.93,-3.14 0.12,0 0.46,0.17 1.04,0.52 1.82,1.16 3.72,1.74 5.69,1.74 1.98,0 3.54,-0.46 4.7,-1.37 1.16,-0.91 1.74,-2.09 1.74,-3.54 0,-1.45 -0.43,-2.59 -1.31,-3.43 -0.87,-0.83 -1.93,-1.46 -3.16,-1.89 -1.24,-0.43 -2.47,-0.88 -3.69,-1.36 -1.22,-0.48 -2.26,-1.27 -3.14,-2.35 -0.87,-1.08 -1.31,-2.5 -1.31,-4.24 0,-2.59 1,-4.69 2.99,-6.3 1.99,-1.61 4.52,-2.41 7.58,-2.41 1.67,0 3.28,0.23 4.85,0.7 1.57,0.46 2.35,1.16 2.35,2.09 0,0.39 -0.24,0.95 -0.73,1.68 -0.49,0.74 -0.94,1.1 -1.36,1.1 -0.04,0 -0.29,-0.12 -0.76,-0.35 -1.39,-0.7 -2.89,-1.04 -4.5,-1.04 -1.61,0 -2.89,0.35 -3.86,1.04 -0.97,0.7 -1.45,1.6 -1.45,2.7 0,1.1 0.43,1.99 1.28,2.64 0.85,0.66 1.89,1.2 3.11,1.63 1.22,0.43 2.45,0.92 3.69,1.48 1.24,0.56 2.28,1.44 3.14,2.64 0.85,1.2 1.28,2.69 1.28,4.47 0,3.06 -1,5.53 -2.99,7.43 -1.99,1.9 -4.65,2.84 -7.98,2.84 -1.55,0 -3.29,-0.29 -5.23,-0.87 -1.94,-0.58 -2.9,-1.39 -2.9,-2.44zm50.52 -0.87l1.57 -0.29c0.23,0 0.35,0.21 0.35,0.64 0,0.42 -0.07,1.02 -0.2,1.77 -0.13,0.76 -0.58,1.29 -1.34,1.6 -0.75,0.31 -1.48,0.46 -2.18,0.46 -3.48,0 -5.23,-1.9 -5.23,-5.69l0 -0.58c-2.21,4.18 -5.23,6.27 -9.06,6.27 -2.21,0 -4.28,-0.81 -6.21,-2.44 -1.05,-0.89 -1.89,-2.2 -2.53,-3.92 -0.64,-1.72 -0.96,-3.79 -0.96,-6.19 0,-5.46 1.3,-9.91 3.89,-13.35 2.59,-3.45 6.04,-5.17 10.34,-5.17 2.71,0 5.17,1.05 7.37,3.14 0.23,-0.74 0.43,-1.26 0.58,-1.57 0.46,-0.89 1.14,-1.33 2.03,-1.33l0.35 0c0.97,0 1.45,0.4 1.45,1.22 -1.55,14.32 -2.32,21.89 -2.32,22.7 0,0.81 0.06,1.39 0.17,1.74 0.12,0.35 0.29,0.58 0.52,0.69 0.43,0.19 0.89,0.29 1.39,0.29zm-11.09 -22.65c-6.42,0 -9.64,4.64 -9.64,13.94 0,5.77 1.92,8.65 5.75,8.65 1.55,0 3.12,-0.76 4.7,-2.29 1.59,-1.53 2.92,-4.04 4.01,-7.52l0.75 -7.61c0.08,-0.7 0.23,-1.66 0.46,-2.9 -1.9,-1.51 -3.91,-2.26 -6.04,-2.26zm39.08 -11.26l0.23 0c1.47,0 2.21,0.42 2.21,1.28l-0.64 6.1 4.94 0c0.62,0 0.93,0.37 0.93,1.1 0,0.77 -0.27,1.48 -0.81,2.12 -0.54,0.64 -1.14,0.96 -1.8,0.96l-3.72 0c-1.32,11.92 -1.97,18.27 -1.97,19.04 0,2.21 0.93,3.31 2.79,3.31 0.7,0 1.3,-0.07 1.8,-0.2 0.5,-0.14 0.77,-0.2 0.82,-0.2 0.27,0 0.41,0.24 0.41,0.73 0,0.48 -0.1,1.13 -0.29,1.94 -0.31,1.28 -1.63,1.92 -3.95,1.92 -4.34,0 -6.5,-2.13 -6.5,-6.39l2.03 -20.15 -2.9 0c-0.66,0 -0.99,-0.52 -0.99,-1.57 0,-1.74 0.48,-2.61 1.45,-2.61l2.9 0 0.7 -6.1c0.11,-0.85 0.91,-1.28 2.38,-1.28zm37.45 33.91l1.57 -0.29c0.23,0 0.35,0.21 0.35,0.64 0,0.42 -0.07,1.02 -0.2,1.77 -0.13,0.76 -0.58,1.29 -1.34,1.6 -0.75,0.31 -1.48,0.46 -2.18,0.46 -3.48,0 -5.23,-1.9 -5.23,-5.69l0 -0.58c-2.21,4.18 -5.23,6.27 -9.06,6.27 -2.21,0 -4.28,-0.81 -6.21,-2.44 -1.05,-0.89 -1.89,-2.2 -2.53,-3.92 -0.64,-1.72 -0.96,-3.79 -0.96,-6.19 0,-5.46 1.3,-9.91 3.89,-13.35 2.59,-3.45 6.04,-5.17 10.34,-5.17 2.71,0 5.17,1.05 7.37,3.14 0.23,-0.74 0.43,-1.26 0.58,-1.57 0.46,-0.89 1.14,-1.33 2.03,-1.33l0.35 0c0.97,0 1.45,0.4 1.45,1.22 -1.55,14.32 -2.32,21.89 -2.32,22.7 0,0.81 0.06,1.39 0.17,1.74 0.12,0.35 0.29,0.58 0.52,0.69 0.43,0.19 0.89,0.29 1.39,0.29zm-11.09 -22.65c-6.42,0 -9.64,4.64 -9.64,13.94 0,5.77 1.92,8.65 5.75,8.65 1.55,0 3.12,-0.76 4.7,-2.29 1.59,-1.53 2.92,-4.04 4.01,-7.52l0.75 -7.61c0.08,-0.7 0.23,-1.66 0.46,-2.9 -1.9,-1.51 -3.91,-2.26 -6.04,-2.26zm25.55 -14.28l1.16 0c1.43,0 2.15,0.43 2.15,1.28l-4.35 26.48c-0.12,0.85 -0.76,1.28 -1.92,1.28l-0.64 0c-1.09,0 -1.63,-0.42 -1.63,-1.28l2.79 -26.48c0.12,-0.85 0.93,-1.28 2.44,-1.28zm-4.3 34.49l0.99 0c1.47,0 2.21,0.43 2.21,1.28l-0.41 3.83c-0.12,0.85 -0.93,1.28 -2.44,1.28l-0.99 0c-1.47,0 -2.21,-0.42 -2.21,-1.28l0.41 -3.83c0.08,-0.85 0.89,-1.28 2.44,-1.28z"/>
  </g>
 </g>
</svg>
