<?xml version="1.0" encoding="utf-8"?>
<!-- Generator: Adobe Illustrator 27.5.0, SVG Export Plug-In . SVG Version: 6.00 Build 0)  -->
<svg version="1.1" xmlns="http://www.w3.org/2000/svg" xmlns:xlink="http://www.w3.org/1999/xlink" x="0px" y="0px"
	 viewBox="0 0 385.57 260.79" style="enable-background:new 0 0 385.57 260.79;" xml:space="preserve">
<style type="text/css">
	.st0{fill:url(#SVGID_1_);}
	.st1{fill:url(#SVGID_00000012444566895182650910000012114731131626579336_);}
	.st2{fill:url(#SVGID_00000088125238396486487420000007352613216435427740_);}
	.st3{fill:#FFFFFF;}
</style>
<g id="Layer_1">
	<g>
		<linearGradient id="SVGID_1_" gradientUnits="userSpaceOnUse" x1="217.7991" y1="42.5132" x2="274.5573" y2="250.2404">
			<stop  offset="0" style="stop-color:#0D4869"/>
			<stop  offset="0" style="stop-color:#1A4C6B"/>
			<stop  offset="0" style="stop-color:#315574"/>
			<stop  offset="0" style="stop-color:#4F6683"/>
			<stop  offset="0" style="stop-color:#76839B"/>
			<stop  offset="0" style="stop-color:#ACB2C1"/>
			<stop  offset="0" style="stop-color:#FFFFFF"/>
			<stop  offset="0" style="stop-color:#0D4869"/>
			<stop  offset="0.0686" style="stop-color:#0C4564"/>
			<stop  offset="0.5157" style="stop-color:#002D46"/>
			<stop  offset="0.8376" style="stop-color:#001B32"/>
			<stop  offset="1" style="stop-color:#001229"/>
		</linearGradient>
		<path class="st0" d="M240.03,73.03c-4.78,0.01-8.62,1.72-11.53,5.12c-2.91,3.4-4.36,7.32-4.36,11.75v67.42
			c0,5.13,1.66,9.24,4.99,12.35s6.96,4.66,10.91,4.65c4.85-0.01,8.73-1.84,11.63-5.48c2.91-3.64,4.16-9.32,4.16-13.4V89.82
			c0-4.57-1.49-8.51-4.47-11.83C248.37,74.68,244.6,73.02,240.03,73.03z"/>
		<g>
			
				<linearGradient id="SVGID_00000107568527271256682030000018421961193635006903_" gradientUnits="userSpaceOnUse" x1="33.1956" y1="92.9531" x2="89.9538" y2="300.6804">
				<stop  offset="0" style="stop-color:#0D4869"/>
				<stop  offset="0" style="stop-color:#1A4C6B"/>
				<stop  offset="0" style="stop-color:#315574"/>
				<stop  offset="0" style="stop-color:#4F6683"/>
				<stop  offset="0" style="stop-color:#76839B"/>
				<stop  offset="0" style="stop-color:#ACB2C1"/>
				<stop  offset="0" style="stop-color:#FFFFFF"/>
				<stop  offset="0" style="stop-color:#0D4869"/>
				<stop  offset="0.2968" style="stop-color:#023753"/>
				<stop  offset="0.6184" style="stop-color:#00263E"/>
				<stop  offset="0.8632" style="stop-color:#00182F"/>
				<stop  offset="1" style="stop-color:#001229"/>
			</linearGradient>
			<path style="fill:url(#SVGID_00000107568527271256682030000018421961193635006903_);" d="M90.48,193.58l-13.19-13.37
				c1.87-3.26,3.38-6.81,4.52-10.66c1.14-3.85,1.61-7.81,1.61-11.9V90.23c0-7.96-1.99-15.13-5.77-21.49
				c-3.78-6.36-8.81-11.44-15.12-15.23c-6.3-3.72-13.23-5.58-20.78-5.56c-7.76,0.02-14.79,1.99-21.09,5.92
				c-6.3,3.93-11.29,9.12-14.96,15.57C1.97,75.88,0,82.88,0,90.43v67.42c0,7.76,1.82,14.9,5.66,21.44
				c3.84,6.53,8.95,11.7,15.32,15.49c6.3,3.79,13.23,5.68,20.78,5.66c5.47-0.01,10.8-1.13,16-3.36L72.4,211.9
				c0.55,0.41,1.07,0.41,1.56,0l16.72-16.87C91.24,194.61,91.17,194.13,90.48,193.58z M57.65,157.71c0,4.09-1.35,7.95-4.26,11.59
				c-2.91,3.64-6.79,5.47-11.63,5.48c-3.95,0.01-7.58-1.54-10.91-4.65s-4.99-7.22-4.99-12.35V90.37c0-4.43,1.45-8.35,4.36-11.75
				c2.91-3.4,6.75-5.11,11.53-5.12c4.57-0.01,8.34,1.64,11.32,4.96c2.98,3.32,4.57,7.26,4.57,11.83V157.71z"/>
			
				<linearGradient id="SVGID_00000150808978442729103720000013050636447650344108_" gradientUnits="userSpaceOnUse" x1="222.1957" y1="41.3118" x2="278.9539" y2="249.0391">
				<stop  offset="0" style="stop-color:#0D4869"/>
				<stop  offset="0" style="stop-color:#1A4C6B"/>
				<stop  offset="0" style="stop-color:#315574"/>
				<stop  offset="0" style="stop-color:#4F6683"/>
				<stop  offset="0" style="stop-color:#76839B"/>
				<stop  offset="0" style="stop-color:#ACB2C1"/>
				<stop  offset="0" style="stop-color:#FFFFFF"/>
				<stop  offset="0" style="stop-color:#0D4869"/>
				<stop  offset="0.2968" style="stop-color:#023753"/>
				<stop  offset="0.6184" style="stop-color:#00263E"/>
				<stop  offset="0.8632" style="stop-color:#00182F"/>
				<stop  offset="1" style="stop-color:#001229"/>
			</linearGradient>
			<path style="fill:url(#SVGID_00000150808978442729103720000013050636447650344108_);" d="M384.74,50.11h-24.32
				c-0.56,0-0.83,0.28-0.83,0.83l0.01,106.27c0,4.78-1.52,8.85-4.57,12.22c-3.05,3.37-6.86,5.05-11.43,5.07
				c-4.36,0.01-8.07-1.66-11.11-5.01c-3.05-3.35-4.57-7.42-4.57-12.19V50.92c0-0.55-0.28-0.81-0.83-0.81h-24.27
				c-0.56,0-0.83,0.3-0.83,0.85V0H177.95v90.01c0-7.82-1.69-14.94-5.46-21.33c-3.78-6.4-8.78-11.49-15.01-15.29
				c-6.17-3.79-13.12-5.68-20.88-5.66c-7.48,0.02-14.41,1.96-20.78,5.81c-6.37,3.86-11.43,8.98-15.17,15.36
				c-3.81,6.31-5.82,13.41-5.82,21.31v67.42c0,7.76,1.82,14.87,5.66,21.33c3.84,6.47,8.92,11.63,15.22,15.49
				c6.37,3.86,13.33,5.78,20.88,5.77c7.69-0.02,14.68-1.97,20.98-5.87c6.3-3.89,11.36-9.1,15.17-15.62
				c3.74-6.45,5.2-13.55,5.2-21.31v103.37h124.03V157.38c0,7.76,1.85,14.87,5.63,21.41c3.77,6.53,8.85,11.73,15.22,15.6
				c6.37,3.86,13.3,5.78,20.78,5.77c7.83-0.02,14.89-1.96,21.19-5.82c6.3-3.86,11.36-9.05,15.17-15.57
				c3.74-6.59,5.61-13.79,5.61-21.62V50.94C385.57,50.39,385.29,50.11,384.74,50.11z M147.82,169.29
				c-3.19,3.51-6.93,5.26-11.22,5.27c-4.36,0.01-8.1-1.66-11.22-5.01c-3.12-3.35-4.67-7.35-4.67-11.99V90.14
				c0-4.85,1.56-8.87,4.67-12.06c3.12-3.19,6.86-4.79,11.22-4.81c4.57-0.01,8.34,1.61,11.32,4.86c2.98,3.25,4.47,7.23,4.47,11.94
				l0.21,67.42C152.6,161.85,151.01,165.78,147.82,169.29z M288.95,194.56l-16.72,16.87c-0.49,0.42-1,0.42-1.56,0l-14.65-14.82
				c-5.19,2.23-10.53,3.35-16,3.36c-7.55,0.02-14.47-1.87-20.78-5.66c-6.37-3.79-11.48-8.96-15.32-15.49
				c-3.84-6.54-5.66-13.68-5.66-21.44V89.96c0-7.55,1.97-14.55,5.71-21c3.67-6.45,8.66-11.64,14.96-15.57
				c6.3-3.93,13.33-5.9,21.09-5.92c7.55-0.02,14.47,1.84,20.78,5.56c6.3,3.79,11.34,8.87,15.12,15.23
				c3.77,6.36,5.66,13.53,5.66,21.49v67.42c0,4.09-0.36,8.05-1.51,11.9c-1.14,3.85-2.65,7.4-4.52,10.66l13.19,13.37
				C289.44,193.66,289.51,194.14,288.95,194.56z"/>
		</g>
	</g>
</g>
<g id="media">
	<g>
		<g>
			<path class="st3" d="M197.69,244.66V231h2.72v1.32h0.05c0.28-0.43,0.63-0.79,1.03-1.06c0.4-0.28,0.91-0.42,1.54-0.42
				c0.59,0,1.08,0.14,1.47,0.43s0.71,0.6,0.96,0.94c0.34-0.38,0.71-0.7,1.12-0.97c0.41-0.27,0.98-0.4,1.71-0.4
				c0.34,0,0.69,0.06,1.04,0.18c0.36,0.12,0.68,0.31,0.96,0.58c0.29,0.27,0.52,0.62,0.69,1.04s0.27,0.94,0.27,1.55v10.48h-2.72
				v-9.45c0-0.5-0.12-0.9-0.35-1.19c-0.23-0.29-0.56-0.43-0.99-0.43c-0.52,0-0.87,0.16-1.07,0.48c-0.2,0.32-0.29,0.79-0.29,1.4v9.18
				h-2.72v-9.45c0-0.5-0.12-0.9-0.35-1.19c-0.23-0.29-0.56-0.43-0.99-0.43c-0.52,0-0.87,0.16-1.07,0.48
				c-0.2,0.32-0.29,0.79-0.29,1.4v9.18H197.69z"/>
			<path class="st3" d="M229.92,238.87h-5.39v1.86c0,0.43,0.12,0.76,0.36,1s0.57,0.35,0.97,0.35c0.52,0,0.86-0.15,1.03-0.46
				s0.27-0.61,0.31-0.92h2.72c0,1.2-0.37,2.17-1.09,2.91c-0.36,0.38-0.78,0.67-1.28,0.89c-0.5,0.21-1.06,0.32-1.68,0.32
				c-0.85,0-1.58-0.18-2.18-0.54s-1.05-0.83-1.38-1.43c-0.2-0.36-0.33-0.77-0.4-1.24c-0.07-0.47-0.11-0.98-0.11-1.54v-4.5
				c0-0.56,0.04-1.07,0.11-1.54c0.07-0.47,0.2-0.88,0.4-1.24c0.32-0.59,0.78-1.07,1.38-1.43s1.32-0.54,2.18-0.54
				c0.62,0,1.19,0.11,1.7,0.32c0.51,0.22,0.94,0.51,1.29,0.89c0.71,0.81,1.07,1.82,1.07,3.04V238.87z M224.53,236.71h2.67v-1.56
				c0-0.52-0.12-0.91-0.36-1.17c-0.24-0.26-0.57-0.39-0.98-0.39c-0.41,0-0.73,0.13-0.97,0.39c-0.24,0.26-0.36,0.65-0.36,1.17V236.71
				z"/>
			<path class="st3" d="M246.43,244.66v-1.24c-0.18,0.2-0.35,0.38-0.51,0.55s-0.34,0.32-0.53,0.44c-0.2,0.13-0.42,0.22-0.67,0.3
				c-0.25,0.07-0.54,0.11-0.88,0.11c-1.14,0-1.93-0.43-2.38-1.29c-0.16-0.31-0.28-0.68-0.35-1.13c-0.07-0.45-0.11-1.05-0.11-1.8
				v-5.2c0-0.99,0.03-1.71,0.08-2.18c0.11-0.9,0.53-1.57,1.26-2.02c0.34-0.23,0.85-0.35,1.52-0.35c0.53,0,1.01,0.12,1.43,0.36
				c0.42,0.24,0.78,0.59,1.08,1.04h0.05v-6.76h2.72v19.17H246.43z M243.73,240.21c0,0.56,0.11,1.01,0.32,1.35s0.55,0.51,1.01,0.51
				c0.41,0,0.74-0.16,0.99-0.47c0.25-0.31,0.37-0.72,0.37-1.23v-5.3c0-0.43-0.13-0.79-0.39-1.06c-0.26-0.28-0.58-0.42-0.98-0.42
				c-0.52,0-0.87,0.16-1.05,0.48c-0.19,0.32-0.28,0.7-0.28,1.13V240.21z"/>
			<path class="st3" d="M260.48,228.23v-2.75h2.72v2.75H260.48z M260.48,244.66V231h2.72v13.65H260.48z"/>
			<path class="st3" d="M279.68,244.66v-1.4h-0.05c-0.36,0.5-0.72,0.89-1.08,1.16c-0.37,0.27-0.88,0.4-1.54,0.4
				c-0.32,0-0.65-0.05-0.97-0.15s-0.65-0.28-0.95-0.55c-0.3-0.25-0.55-0.61-0.73-1.09c-0.19-0.48-0.28-1.09-0.28-1.84
				c0-0.77,0.06-1.45,0.19-2.03c0.12-0.58,0.36-1.07,0.69-1.47c0.32-0.38,0.76-0.66,1.31-0.85c0.55-0.19,1.25-0.28,2.11-0.28
				c0.09,0,0.19,0,0.29,0s0.2,0.01,0.29,0.03c0.09,0.02,0.2,0.03,0.32,0.03c0.12,0,0.26,0.01,0.4,0.03v-1.43
				c0-0.47-0.1-0.85-0.29-1.16c-0.2-0.31-0.55-0.46-1.07-0.46c-0.36,0-0.68,0.12-0.97,0.35s-0.49,0.57-0.57,1.02h-2.64
				c0.07-1.22,0.48-2.21,1.23-2.96c0.36-0.36,0.78-0.64,1.28-0.85c0.5-0.21,1.06-0.31,1.68-0.31c0.57,0,1.1,0.09,1.6,0.27
				c0.5,0.18,0.94,0.45,1.31,0.81c0.36,0.36,0.64,0.81,0.85,1.35c0.21,0.54,0.32,1.17,0.32,1.89v9.51H279.68z M279.68,238.78
				c-0.3-0.05-0.55-0.08-0.75-0.08c-0.59,0-1.09,0.14-1.51,0.42s-0.63,0.79-0.63,1.52c0,0.52,0.12,0.94,0.37,1.27
				c0.25,0.32,0.6,0.49,1.04,0.49c0.46,0,0.82-0.15,1.08-0.46c0.26-0.31,0.39-0.74,0.39-1.29V238.78z"/>
		</g>
	</g>
</g>
</svg>
